<?xml version="1.0" encoding="UTF-8" standalone="no"?>
<!DOCTYPE svg PUBLIC "-//W3C//DTD SVG 1.1//EN" "http://www.w3.org/Graphics/SVG/1.1/DTD/svg11.dtd">
<svg width="100%" height="100%" viewBox="0 0 285 200" version="1.1" xmlns="http://www.w3.org/2000/svg" xmlns:xlink="http://www.w3.org/1999/xlink" xml:space="preserve" xmlns:serif="http://www.serif.com/" style="fill-rule:evenodd;clip-rule:evenodd;stroke-linecap:round;stroke-linejoin:round;stroke-miterlimit:1.5;">
    <g transform="matrix(1,0,0,1,-407.792,-396.833)">
        <g id="g1423">
            <g>
                <g id="rect568" transform="matrix(1,0,0,1,294.759,0)">
                    <rect x="273.978" y="443.486" width="41.969" height="153.036" style="fill:rgb(0,94,115);fill-rule:nonzero;"/>
                </g>
                <g id="g9297" transform="matrix(1,0,0,1,294.759,0)">
                    <rect id="rect566" x="194.236" y="396.833" width="41.969" height="199.612" style="fill:rgb(0,193,212);fill-rule:nonzero;"/>
                    <rect id="rect570" x="114.494" y="396.833" width="154.447" height="41.586" style="fill:rgb(0,193,212);fill-rule:nonzero;"/>
                </g>
                <g id="rect572" transform="matrix(1,0,0,1,294.759,0)">
                    <rect x="321.082" y="396.833" width="75.545" height="41.586" style="fill:rgb(0,94,115);fill-rule:nonzero;"/>
                </g>
                <g id="rect574" transform="matrix(1,0,0,1,294.759,0)">
                    <rect x="321.082" y="554.971" width="75.545" height="41.586" style="fill:rgb(0,94,115);fill-rule:nonzero;"/>
                </g>
                <g id="rect576" transform="matrix(1,0,0,1,294.759,0)">
                    <rect x="321.082" y="477.626" width="75.545" height="41.586" style="fill:rgb(0,94,115);fill-rule:nonzero;"/>
                </g>
                <g id="rect578" transform="matrix(1,0,0,1,294.759,0)">
                    <rect x="273.978" y="396.833" width="41.969" height="41.586" style="fill:rgb(0,94,115);fill-rule:nonzero;"/>
                </g>
                <g id="g32218" transform="matrix(0.91332,0,0,0.91332,112.68,-204.558)">
                    <g id="text12608-7">
                        <path id="path1528" d="M355.354,823.081C355.354,820.459 355.824,818.406 356.764,816.921C357.718,815.436 359.294,814.694 361.492,814.694C363.689,814.694 365.257,815.436 366.197,816.921C367.151,818.406 367.629,820.459 367.629,823.081C367.629,825.717 367.151,827.786 366.197,829.286C365.257,830.786 363.689,831.536 361.491,831.536C359.294,831.536 357.718,830.786 356.764,829.286C355.824,827.786 355.354,825.717 355.354,823.081ZM364.492,823.081C364.492,821.959 364.416,821.02 364.265,820.262C364.128,819.49 363.84,818.861 363.401,818.376C362.977,817.891 362.34,817.648 361.492,817.648C360.643,817.648 359.999,817.891 359.559,818.376C359.135,818.861 358.847,819.49 358.696,820.262C358.559,821.02 358.491,821.959 358.491,823.081C358.491,824.232 358.559,825.202 358.696,825.99C358.832,826.763 359.12,827.392 359.559,827.877C359.999,828.347 360.643,828.581 361.492,828.581C362.34,828.581 362.984,828.347 363.424,827.877C363.863,827.392 364.151,826.763 364.287,825.99C364.424,825.202 364.492,824.232 364.492,823.081Z" style="fill:rgb(255,128,21);fill-rule:nonzero;"/>
                        <g id="path1530" transform="matrix(1,0,0,1,-2.90978,0)">
                            <path d="M374.651,817.944L374.651,815.012L380.129,815.012L380.129,831.582L376.856,831.582L376.856,817.944L374.651,817.944Z" style="fill:rgb(255,128,21);fill-rule:nonzero;"/>
                        </g>
                        <g id="path1532" transform="matrix(1,0,0,1,3.47021,0)">
                            <path d="M354.968,836.128L354.968,833.196L360.446,833.196L360.446,849.765L357.173,849.765L357.173,836.128L354.968,836.128Z" style="fill:rgb(255,128,21);fill-rule:nonzero;"/>
                        </g>
                        <path id="path1534" d="M368.583,841.265C368.583,838.643 369.052,836.59 369.992,835.105C370.947,833.62 372.522,832.877 374.72,832.877C376.917,832.877 378.485,833.62 379.425,835.105C380.379,836.59 380.857,838.643 380.857,841.265C380.857,843.901 380.379,845.97 379.425,847.47C378.485,848.97 376.917,849.72 374.72,849.72C372.522,849.72 370.947,848.97 369.992,847.47C369.052,845.97 368.583,843.901 368.583,841.265ZM377.72,841.265C377.72,840.143 377.644,839.204 377.493,838.446C377.356,837.673 377.068,837.044 376.629,836.56C376.205,836.075 375.568,835.832 374.72,835.832C373.871,835.832 373.227,836.075 372.788,836.56C372.363,837.044 372.075,837.673 371.924,838.446C371.788,839.204 371.719,840.143 371.719,841.265C371.719,842.416 371.788,843.386 371.924,844.174C372.06,844.947 372.348,845.576 372.788,846.061C373.227,846.53 373.871,846.765 374.72,846.765C375.568,846.765 376.212,846.53 376.652,846.061C377.091,845.576 377.379,844.947 377.515,844.174C377.652,843.386 377.72,842.416 377.72,841.265Z" style="fill:rgb(255,128,21);fill-rule:nonzero;"/>
                    </g>
                </g>
                <g transform="matrix(1.11348,0,0,1.11348,406.301,449.672)">
                    <path d="M32.167,58.331L46.451,58.331L47.668,69.083L50.557,70.743L59.408,64.324L69.509,74.43L62.953,83.792L64.376,86.231L76.242,89.224L76.323,102.431L64.213,103.97L63.041,106.864L69.536,116.096L59.226,126.413L50.98,120.307L47.266,120.793L45.898,131.815L31.196,131.383L30.081,121.109L26.816,119.37L18.395,126.165L8.218,115.452L14.794,107.274L13.383,103.676L2.602,102.216L2.931,87.314L13.107,86.031L14.764,82.631L8.175,74.47L18.694,64.344L26.816,70.631L30.701,69.047L32.167,58.331ZM38.704,75.02C49.772,75.02 58.758,84.006 58.758,95.073C58.758,106.141 49.772,115.127 38.704,115.127C27.636,115.127 18.651,106.141 18.651,95.073C18.651,84.006 27.636,75.02 38.704,75.02Z" style="fill:rgb(255,128,22);stroke:rgb(255,128,21);stroke-width:0.9px;"/>
                </g>
                <g transform="matrix(0.979304,0,0,0.979304,343.436,408.052)">
                    <path d="M160.115,89.541L170.266,89.541L171.13,97.181L173.183,98.361L179.473,93.799L186.65,100.98L181.992,107.633L183.003,109.366L191.434,111.492L191.491,120.877L182.886,121.971L182.054,124.027L186.669,130.587L179.343,137.918L173.484,133.579L170.844,133.925L169.873,141.757L159.426,141.45L158.634,134.149L156.313,132.914L150.33,137.742L143.098,130.13L147.771,124.318L146.769,121.762L139.108,120.725L139.342,110.136L146.572,109.224L147.75,106.808L143.068,101.009L150.542,93.814L156.313,98.281L159.074,97.156L160.115,89.541ZM165.3,107.35C169.88,107.35 173.599,111.068 173.599,115.649C173.599,120.23 169.88,123.948 165.3,123.948C160.719,123.948 157,120.23 157,115.649C157,111.068 160.719,107.35 165.3,107.35Z" style="fill:rgb(255,128,22);stroke:rgb(255,128,21);stroke-width:1.02px;"/>
                </g>
            </g>
        </g>
    </g>
</svg>
