<?xml version="1.0" encoding="UTF-8" standalone="no"?>
<!DOCTYPE svg PUBLIC "-//W3C//DTD SVG 1.1//EN" "http://www.w3.org/Graphics/SVG/1.1/DTD/svg11.dtd">
<svg width="100%" height="100%" viewBox="0 0 805 200" version="1.1" xmlns="http://www.w3.org/2000/svg" xmlns:xlink="http://www.w3.org/1999/xlink" xml:space="preserve" xmlns:serif="http://www.serif.com/" style="fill-rule:evenodd;clip-rule:evenodd;stroke-linecap:round;stroke-linejoin:round;stroke-miterlimit:1.5;">
    <g id="g1423" transform="matrix(1,0,0,1,-114.439,-396.833)">
        <g id="g5985">
            <g id="text540" transform="matrix(1.18443,0,0,1.17361,-1769.39,-776.417)">
                <rect id="path1425" x="1864.24" y="1050.09" width="3.936" height="30.146" style="fill:white;fill-rule:nonzero;"/>
                <path id="path1427" d="M1884.55,1056.1C1887.43,1056.1 1889.77,1056.98 1891.56,1058.74C1893.34,1060.47 1894.24,1062.98 1894.24,1066.27L1894.24,1080.24L1890.35,1080.24L1890.35,1066.83C1890.35,1064.46 1889.75,1062.66 1888.57,1061.42C1887.39,1060.15 1885.78,1059.52 1883.73,1059.52C1881.65,1059.52 1879.99,1060.17 1878.75,1061.47C1877.54,1062.76 1876.94,1064.65 1876.94,1067.13L1876.94,1080.24L1873,1080.24L1873,1056.54L1876.94,1056.54L1876.94,1059.91C1877.72,1058.7 1878.77,1057.76 1880.1,1057.1C1881.45,1056.43 1882.93,1056.1 1884.55,1056.1Z" style="fill:white;fill-rule:nonzero;"/>
                <path id="path1429" d="M1907.2,1080.63C1905.38,1080.63 1903.75,1080.32 1902.31,1079.72C1900.87,1079.08 1899.73,1078.22 1898.89,1077.12C1898.06,1076 1897.6,1074.71 1897.51,1073.27L1901.58,1073.27C1901.69,1074.46 1902.24,1075.42 1903.22,1076.17C1904.23,1076.92 1905.54,1077.3 1907.15,1077.3C1908.65,1077.3 1909.84,1076.96 1910.7,1076.3C1911.57,1075.64 1912,1074.8 1912,1073.79C1912,1072.76 1911.54,1071.99 1910.62,1071.5C1909.69,1070.98 1908.27,1070.48 1906.33,1069.99C1904.57,1069.53 1903.13,1069.06 1902.01,1068.6C1900.91,1068.11 1899.96,1067.41 1899.15,1066.48C1898.38,1065.53 1897.99,1064.29 1897.99,1062.76C1897.99,1061.55 1898.35,1060.44 1899.07,1059.43C1899.79,1058.42 1900.81,1057.63 1902.14,1057.05C1903.46,1056.45 1904.98,1056.15 1906.68,1056.15C1909.3,1056.15 1911.42,1056.81 1913.04,1058.14C1914.65,1059.46 1915.52,1061.28 1915.63,1063.59L1911.7,1063.59C1911.61,1062.35 1911.11,1061.35 1910.18,1060.6C1909.29,1059.85 1908.08,1059.48 1906.55,1059.48C1905.14,1059.48 1904.01,1059.78 1903.18,1060.38C1902.34,1060.99 1901.92,1061.78 1901.92,1062.76C1901.92,1063.54 1902.17,1064.19 1902.66,1064.71C1903.18,1065.2 1903.81,1065.6 1904.56,1065.92C1905.34,1066.21 1906.4,1066.54 1907.76,1066.92C1909.46,1067.38 1910.85,1067.84 1911.91,1068.3C1912.98,1068.73 1913.89,1069.39 1914.64,1070.29C1915.42,1071.18 1915.82,1072.35 1915.85,1073.79C1915.85,1075.09 1915.49,1076.26 1914.77,1077.3C1914.05,1078.33 1913.02,1079.16 1911.7,1079.76C1910.4,1080.34 1908.9,1080.63 1907.2,1080.63Z" style="fill:white;fill-rule:nonzero;"/>
                <path id="path1431" d="M1924.31,1059.78L1924.31,1073.75C1924.31,1074.9 1924.56,1075.72 1925.05,1076.21C1925.54,1076.68 1926.39,1076.91 1927.6,1076.91L1930.5,1076.91L1930.5,1080.24L1926.95,1080.24C1924.76,1080.24 1923.11,1079.73 1922.02,1078.72C1920.92,1077.71 1920.37,1076.06 1920.37,1073.75L1920.37,1059.78L1917.3,1059.78L1917.3,1056.54L1920.37,1056.54L1920.37,1050.57L1924.31,1050.57L1924.31,1056.54L1930.5,1056.54L1930.5,1059.78L1924.31,1059.78Z" style="fill:white;fill-rule:nonzero;"/>
                <path id="path1433" d="M1935.41,1052.69C1934.66,1052.69 1934.03,1052.43 1933.51,1051.91C1932.99,1051.39 1932.73,1050.75 1932.73,1050C1932.73,1049.25 1932.99,1048.62 1933.51,1048.1C1934.03,1047.58 1934.66,1047.32 1935.41,1047.32C1936.13,1047.32 1936.74,1047.58 1937.23,1048.1C1937.75,1048.62 1938.01,1049.25 1938.01,1050C1938.01,1050.75 1937.75,1051.39 1937.23,1051.91C1936.74,1052.43 1936.13,1052.69 1935.41,1052.69ZM1937.31,1056.54L1937.31,1080.24L1933.38,1080.24L1933.38,1056.54L1937.31,1056.54Z" style="fill:white;fill-rule:nonzero;"/>
                <path id="path1435" d="M1946.94,1059.78L1946.94,1073.75C1946.94,1074.9 1947.19,1075.72 1947.68,1076.21C1948.17,1076.68 1949.02,1076.91 1950.23,1076.91L1953.13,1076.91L1953.13,1080.24L1949.58,1080.24C1947.39,1080.24 1945.75,1079.73 1944.65,1078.72C1943.56,1077.71 1943.01,1076.06 1943.01,1073.75L1943.01,1059.78L1939.94,1059.78L1939.94,1056.54L1943.01,1056.54L1943.01,1050.57L1946.94,1050.57L1946.94,1056.54L1953.13,1056.54L1953.13,1059.78L1946.94,1059.78Z" style="fill:white;fill-rule:nonzero;"/>
                <path id="path1437" d="M1977.03,1056.54L1977.03,1080.24L1973.1,1080.24L1973.1,1076.73C1972.35,1077.94 1971.29,1078.9 1969.94,1079.59C1968.61,1080.25 1967.14,1080.58 1965.53,1080.58C1963.68,1080.58 1962.02,1080.21 1960.55,1079.46C1959.08,1078.68 1957.91,1077.53 1957.05,1076C1956.21,1074.47 1955.8,1072.61 1955.8,1070.42L1955.8,1056.54L1959.69,1056.54L1959.69,1069.9C1959.69,1072.24 1960.28,1074.04 1961.46,1075.31C1962.64,1076.55 1964.26,1077.17 1966.31,1077.17C1968.41,1077.17 1970.07,1076.52 1971.28,1075.22C1972.49,1073.92 1973.1,1072.03 1973.1,1069.55L1973.1,1056.54L1977.03,1056.54Z" style="fill:white;fill-rule:nonzero;"/>
                <path id="path1439" d="M1986.62,1059.78L1986.62,1073.75C1986.62,1074.9 1986.86,1075.72 1987.35,1076.21C1987.84,1076.68 1988.69,1076.91 1989.9,1076.91L1992.8,1076.91L1992.8,1080.24L1989.26,1080.24C1987.07,1080.24 1985.42,1079.73 1984.33,1078.72C1983.23,1077.71 1982.68,1076.06 1982.68,1073.75L1982.68,1059.78L1979.61,1059.78L1979.61,1056.54L1982.68,1056.54L1982.68,1050.57L1986.62,1050.57L1986.62,1056.54L1992.8,1056.54L1992.8,1059.78L1986.62,1059.78Z" style="fill:white;fill-rule:nonzero;"/>
                <path id="path1441" d="M2017.31,1067.48C2017.31,1068.23 2017.27,1069.02 2017.18,1069.86L1998.24,1069.86C1998.38,1072.19 1999.17,1074.02 2000.62,1075.35C2002.09,1076.65 2003.86,1077.3 2005.94,1077.3C2007.64,1077.3 2009.05,1076.91 2010.17,1076.13C2011.33,1075.32 2012.13,1074.25 2012.6,1072.93L2016.84,1072.93C2016.2,1075.2 2014.93,1077.07 2013.03,1078.51C2011.13,1079.92 2008.76,1080.63 2005.94,1080.63C2003.69,1080.63 2001.67,1080.12 1999.88,1079.11C1998.12,1078.1 1996.74,1076.68 1995.73,1074.83C1994.72,1072.96 1994.22,1070.79 1994.22,1068.34C1994.22,1065.89 1994.71,1063.74 1995.68,1061.9C1996.67,1060.05 1998.04,1058.64 1999.79,1057.66C2001.58,1056.65 2003.63,1056.15 2005.94,1056.15C2008.18,1056.15 2010.17,1056.64 2011.9,1057.62C2013.63,1058.6 2014.96,1059.95 2015.88,1061.68C2016.84,1063.38 2017.31,1065.32 2017.31,1067.48ZM2013.25,1066.66C2013.25,1065.16 2012.91,1063.87 2012.25,1062.81C2011.59,1061.71 2010.68,1060.89 2009.53,1060.34C2008.4,1059.77 2007.15,1059.48 2005.76,1059.48C2003.77,1059.48 2002.07,1060.11 2000.66,1061.38C1999.28,1062.65 1998.48,1064.41 1998.28,1066.66L2013.25,1066.66Z" style="fill:white;fill-rule:nonzero;"/>
                <path id="path1443" d="M2040.64,1080.63C2038.42,1080.63 2036.4,1080.12 2034.58,1079.11C2032.79,1078.1 2031.38,1076.68 2030.34,1074.83C2029.33,1072.96 2028.83,1070.79 2028.83,1068.34C2028.83,1065.92 2029.35,1063.79 2030.39,1061.94C2031.45,1060.07 2032.89,1058.64 2034.71,1057.66C2036.53,1056.65 2038.56,1056.15 2040.81,1056.15C2043.06,1056.15 2045.09,1056.65 2046.91,1057.66C2048.72,1058.64 2050.15,1060.05 2051.19,1061.9C2052.26,1063.74 2052.79,1065.89 2052.79,1068.34C2052.79,1070.79 2052.24,1072.96 2051.15,1074.83C2050.08,1076.68 2048.62,1078.1 2046.78,1079.11C2044.93,1080.12 2042.88,1080.63 2040.64,1080.63ZM2040.64,1077.17C2042.05,1077.17 2043.38,1076.84 2044.62,1076.17C2045.86,1075.51 2046.85,1074.51 2047.6,1073.19C2048.38,1071.86 2048.77,1070.25 2048.77,1068.34C2048.77,1066.44 2048.39,1064.83 2047.64,1063.5C2046.89,1062.17 2045.91,1061.19 2044.7,1060.56C2043.49,1059.89 2042.18,1059.56 2040.77,1059.56C2039.32,1059.56 2038,1059.89 2036.79,1060.56C2035.61,1061.19 2034.65,1062.17 2033.93,1063.5C2033.21,1064.83 2032.85,1066.44 2032.85,1068.34C2032.85,1070.28 2033.2,1071.9 2033.89,1073.23C2034.61,1074.56 2035.56,1075.55 2036.74,1076.21C2037.93,1076.85 2039.22,1077.17 2040.64,1077.17Z" style="fill:white;fill-rule:nonzero;"/>
                <path id="path1445" d="M2065.75,1059.78L2060.78,1059.78L2060.78,1080.24L2056.84,1080.24L2056.84,1059.78L2053.77,1059.78L2053.77,1056.54L2056.84,1056.54L2056.84,1054.85C2056.84,1052.2 2057.52,1050.26 2058.87,1049.05C2060.26,1047.81 2062.46,1047.19 2065.49,1047.19L2065.49,1050.48C2063.76,1050.48 2062.53,1050.83 2061.81,1051.52C2061.12,1052.18 2060.78,1053.29 2060.78,1054.85L2060.78,1056.54L2065.75,1056.54L2065.75,1059.78Z" style="fill:white;fill-rule:nonzero;"/>
            </g>
            <g id="text546" transform="matrix(1.18443,0,0,1.17361,-1769.39,-730.705)">
                <path id="path1448" d="M1868.17,1053.29L1868.17,1063.37L1879.16,1063.37L1879.16,1066.61L1868.17,1066.61L1868.17,1076.99L1880.46,1076.99L1880.46,1080.24L1864.24,1080.24L1864.24,1050.05L1880.46,1050.05L1880.46,1053.29L1868.17,1053.29Z" style="fill:white;fill-rule:nonzero;"/>
                <path id="path1450" d="M1896.1,1056.1C1898.98,1056.1 1901.32,1056.98 1903.1,1058.74C1904.89,1060.47 1905.79,1062.98 1905.79,1066.27L1905.79,1080.24L1901.89,1080.24L1901.89,1066.83C1901.89,1064.46 1901.3,1062.66 1900.12,1061.42C1898.94,1060.15 1897.32,1059.52 1895.28,1059.52C1893.2,1059.52 1891.54,1060.17 1890.3,1061.47C1889.09,1062.76 1888.49,1064.65 1888.49,1067.13L1888.49,1080.24L1884.55,1080.24L1884.55,1056.54L1888.49,1056.54L1888.49,1059.91C1889.26,1058.7 1890.32,1057.76 1891.64,1057.1C1893,1056.43 1894.48,1056.1 1896.1,1056.1Z" style="fill:white;fill-rule:nonzero;"/>
                <path id="path1452" d="M1915.16,1059.78L1915.16,1073.75C1915.16,1074.9 1915.4,1075.72 1915.89,1076.21C1916.38,1076.68 1917.23,1076.91 1918.44,1076.91L1921.34,1076.91L1921.34,1080.24L1917.8,1080.24C1915.6,1080.24 1913.96,1079.73 1912.86,1078.72C1911.77,1077.71 1911.22,1076.06 1911.22,1073.75L1911.22,1059.78L1908.15,1059.78L1908.15,1056.54L1911.22,1056.54L1911.22,1050.57L1915.16,1050.57L1915.16,1056.54L1921.34,1056.54L1921.34,1059.78L1915.16,1059.78Z" style="fill:white;fill-rule:nonzero;"/>
                <path id="path1454" d="M1928.16,1060.38C1928.85,1059.03 1929.83,1057.98 1931.1,1057.23C1932.4,1056.48 1933.97,1056.1 1935.82,1056.1L1935.82,1060.17L1934.78,1060.17C1930.37,1060.17 1928.16,1062.56 1928.16,1067.35L1928.16,1080.24L1924.22,1080.24L1924.22,1056.54L1928.16,1056.54L1928.16,1060.38Z" style="fill:white;fill-rule:nonzero;"/>
                <path id="path1456" d="M1960.11,1067.48C1960.11,1068.23 1960.06,1069.02 1959.98,1069.86L1941.03,1069.86C1941.18,1072.19 1941.97,1074.02 1943.41,1075.35C1944.88,1076.65 1946.66,1077.3 1948.73,1077.3C1950.43,1077.3 1951.85,1076.91 1952.97,1076.13C1954.12,1075.32 1954.93,1074.25 1955.39,1072.93L1959.63,1072.93C1959,1075.2 1957.73,1077.07 1955.83,1078.51C1953.92,1079.92 1951.56,1080.63 1948.73,1080.63C1946.48,1080.63 1944.47,1080.12 1942.68,1079.11C1940.92,1078.1 1939.53,1076.68 1938.53,1074.83C1937.52,1072.96 1937.01,1070.79 1937.01,1068.34C1937.01,1065.89 1937.5,1063.74 1938.48,1061.9C1939.46,1060.05 1940.83,1058.64 1942.59,1057.66C1944.38,1056.65 1946.42,1056.15 1948.73,1056.15C1950.98,1056.15 1952.97,1056.64 1954.7,1057.62C1956.43,1058.6 1957.76,1059.95 1958.68,1061.68C1959.63,1063.38 1960.11,1065.32 1960.11,1067.48ZM1956.04,1066.66C1956.04,1065.16 1955.71,1063.87 1955.05,1062.81C1954.38,1061.71 1953.48,1060.89 1952.32,1060.34C1951.2,1059.77 1949.94,1059.48 1948.56,1059.48C1946.57,1059.48 1944.87,1060.11 1943.45,1061.38C1942.07,1062.65 1941.28,1064.41 1941.08,1066.66L1956.04,1066.66Z" style="fill:white;fill-rule:nonzero;"/>
                <path id="path1458" d="M1967.36,1060.9C1968.14,1059.55 1969.29,1058.42 1970.82,1057.53C1972.38,1056.61 1974.18,1056.15 1976.23,1056.15C1978.33,1056.15 1980.23,1056.65 1981.93,1057.66C1983.66,1058.67 1985.02,1060.1 1986,1061.94C1986.98,1063.76 1987.47,1065.88 1987.47,1068.3C1987.47,1070.69 1986.98,1072.83 1986,1074.7C1985.02,1076.58 1983.66,1078.03 1981.93,1079.07C1980.23,1080.11 1978.33,1080.63 1976.23,1080.63C1974.21,1080.63 1972.42,1080.18 1970.86,1079.29C1969.33,1078.36 1968.17,1077.22 1967.36,1075.87L1967.36,1091.48L1963.42,1091.48L1963.42,1056.54L1967.36,1056.54L1967.36,1060.9ZM1983.45,1068.3C1983.45,1066.51 1983.09,1064.95 1982.37,1063.63C1981.65,1062.3 1980.66,1061.29 1979.42,1060.6C1978.21,1059.91 1976.87,1059.56 1975.4,1059.56C1973.96,1059.56 1972.62,1059.92 1971.38,1060.64C1970.17,1061.34 1969.19,1062.36 1968.44,1063.71C1967.72,1065.04 1967.36,1066.58 1967.36,1068.34C1967.36,1070.13 1967.72,1071.7 1968.44,1073.06C1969.19,1074.38 1970.17,1075.41 1971.38,1076.13C1972.62,1076.82 1973.96,1077.17 1975.4,1077.17C1976.87,1077.17 1978.21,1076.82 1979.42,1076.13C1980.66,1075.41 1981.65,1074.38 1982.37,1073.06C1983.09,1071.7 1983.45,1070.12 1983.45,1068.3Z" style="fill:white;fill-rule:nonzero;"/>
                <path id="path1460" d="M1994.72,1060.38C1995.41,1059.03 1996.39,1057.98 1997.66,1057.23C1998.96,1056.48 2000.53,1056.1 2002.38,1056.1L2002.38,1060.17L2001.34,1060.17C1996.93,1060.17 1994.72,1062.56 1994.72,1067.35L1994.72,1080.24L1990.79,1080.24L1990.79,1056.54L1994.72,1056.54L1994.72,1060.38Z" style="fill:white;fill-rule:nonzero;"/>
                <path id="path1462" d="M2026.67,1067.48C2026.67,1068.23 2026.62,1069.02 2026.54,1069.86L2007.6,1069.86C2007.74,1072.19 2008.53,1074.02 2009.97,1075.35C2011.44,1076.65 2013.22,1077.3 2015.29,1077.3C2017,1077.3 2018.41,1076.91 2019.53,1076.13C2020.68,1075.32 2021.49,1074.25 2021.95,1072.93L2026.19,1072.93C2025.56,1075.2 2024.29,1077.07 2022.39,1078.51C2020.48,1079.92 2018.12,1080.63 2015.29,1080.63C2013.04,1080.63 2011.03,1080.12 2009.24,1079.11C2007.48,1078.1 2006.1,1076.68 2005.09,1074.83C2004.08,1072.96 2003.57,1070.79 2003.57,1068.34C2003.57,1065.89 2004.06,1063.74 2005.04,1061.9C2006.02,1060.05 2007.39,1058.64 2009.15,1057.66C2010.94,1056.65 2012.99,1056.15 2015.29,1056.15C2017.54,1056.15 2019.53,1056.64 2021.26,1057.62C2022.99,1058.6 2024.32,1059.95 2025.24,1061.68C2026.19,1063.38 2026.67,1065.32 2026.67,1067.48ZM2022.6,1066.66C2022.6,1065.16 2022.27,1063.87 2021.61,1062.81C2020.94,1061.71 2020.04,1060.89 2018.88,1060.34C2017.76,1059.77 2016.51,1059.48 2015.12,1059.48C2013.13,1059.48 2011.43,1060.11 2010.02,1061.38C2008.63,1062.65 2007.84,1064.41 2007.64,1066.66L2022.6,1066.66Z" style="fill:white;fill-rule:nonzero;"/>
                <path id="path1464" d="M2041.53,1056.1C2044.41,1056.1 2046.75,1056.98 2048.54,1058.74C2050.33,1060.47 2051.22,1062.98 2051.22,1066.27L2051.22,1080.24L2047.33,1080.24L2047.33,1066.83C2047.33,1064.46 2046.74,1062.66 2045.55,1061.42C2044.37,1060.15 2042.76,1059.52 2040.71,1059.52C2038.63,1059.52 2036.98,1060.17 2035.74,1061.47C2034.53,1062.76 2033.92,1064.65 2033.92,1067.13L2033.92,1080.24L2029.98,1080.24L2029.98,1056.54L2033.92,1056.54L2033.92,1059.91C2034.7,1058.7 2035.75,1057.76 2037.08,1057.1C2038.43,1056.43 2039.92,1056.1 2041.53,1056.1Z" style="fill:white;fill-rule:nonzero;"/>
                <path id="path1466" d="M2077.41,1067.48C2077.41,1068.23 2077.37,1069.02 2077.29,1069.86L2058.34,1069.86C2058.49,1072.19 2059.28,1074.02 2060.72,1075.35C2062.19,1076.65 2063.96,1077.3 2066.04,1077.3C2067.74,1077.3 2069.15,1076.91 2070.28,1076.13C2071.43,1075.32 2072.24,1074.25 2072.7,1072.93L2076.94,1072.93C2076.3,1075.2 2075.04,1077.07 2073.13,1078.51C2071.23,1079.92 2068.87,1080.63 2066.04,1080.63C2063.79,1080.63 2061.77,1080.12 2059.99,1079.11C2058.23,1078.1 2056.84,1076.68 2055.83,1074.83C2054.82,1072.96 2054.32,1070.79 2054.32,1068.34C2054.32,1065.89 2054.81,1063.74 2055.79,1061.9C2056.77,1060.05 2058.14,1058.64 2059.9,1057.66C2061.69,1056.65 2063.73,1056.15 2066.04,1056.15C2068.29,1056.15 2070.28,1056.64 2072.01,1057.62C2073.74,1058.6 2075.07,1059.95 2075.99,1061.68C2076.94,1063.38 2077.41,1065.32 2077.41,1067.48ZM2073.35,1066.66C2073.35,1065.16 2073.02,1063.87 2072.36,1062.81C2071.69,1061.71 2070.78,1060.89 2069.63,1060.34C2068.51,1059.77 2067.25,1059.48 2065.87,1059.48C2063.88,1059.48 2062.18,1060.11 2060.76,1061.38C2059.38,1062.65 2058.59,1064.41 2058.39,1066.66L2073.35,1066.66Z" style="fill:white;fill-rule:nonzero;"/>
                <path id="path1468" d="M2101.75,1056.54L2101.75,1080.24L2097.82,1080.24L2097.82,1076.73C2097.07,1077.94 2096.01,1078.9 2094.66,1079.59C2093.33,1080.25 2091.86,1080.58 2090.25,1080.58C2088.4,1080.58 2086.74,1080.21 2085.27,1079.46C2083.8,1078.68 2082.63,1077.53 2081.77,1076C2080.93,1074.47 2080.51,1072.61 2080.51,1070.42L2080.51,1056.54L2084.41,1056.54L2084.41,1069.9C2084.41,1072.24 2085,1074.04 2086.18,1075.31C2087.36,1076.55 2088.98,1077.17 2091.02,1077.17C2093.13,1077.17 2094.79,1076.52 2096,1075.22C2097.21,1073.92 2097.82,1072.03 2097.82,1069.55L2097.82,1056.54L2101.75,1056.54Z" style="fill:white;fill-rule:nonzero;"/>
                <path id="path1470" d="M2110.47,1060.38C2111.16,1059.03 2112.14,1057.98 2113.41,1057.23C2114.71,1056.48 2116.28,1056.1 2118.13,1056.1L2118.13,1060.17L2117.09,1060.17C2112.68,1060.17 2110.47,1062.56 2110.47,1067.35L2110.47,1080.24L2106.54,1080.24L2106.54,1056.54L2110.47,1056.54L2110.47,1060.38Z" style="fill:white;fill-rule:nonzero;"/>
                <path id="path1472" d="M2129.18,1080.63C2127.37,1080.63 2125.74,1080.32 2124.3,1079.72C2122.86,1079.08 2121.72,1078.22 2120.88,1077.12C2120.04,1076 2119.58,1074.71 2119.5,1073.27L2123.56,1073.27C2123.68,1074.46 2124.22,1075.42 2125.21,1076.17C2126.22,1076.92 2127.53,1077.3 2129.14,1077.3C2130.64,1077.3 2131.82,1076.96 2132.69,1076.3C2133.55,1075.64 2133.99,1074.8 2133.99,1073.79C2133.99,1072.76 2133.52,1071.99 2132.6,1071.5C2131.68,1070.98 2130.25,1070.48 2128.32,1069.99C2126.56,1069.53 2125.12,1069.06 2123.99,1068.6C2122.9,1068.11 2121.95,1067.41 2121.14,1066.48C2120.36,1065.53 2119.97,1064.29 2119.97,1062.76C2119.97,1061.55 2120.33,1060.44 2121.05,1059.43C2121.77,1058.42 2122.8,1057.63 2124.12,1057.05C2125.45,1056.45 2126.96,1056.15 2128.67,1056.15C2131.29,1056.15 2133.41,1056.81 2135.02,1058.14C2136.64,1059.46 2137.5,1061.28 2137.62,1063.59L2133.68,1063.59C2133.6,1062.35 2133.09,1061.35 2132.17,1060.6C2131.28,1059.85 2130.06,1059.48 2128.54,1059.48C2127.12,1059.48 2126,1059.78 2125.16,1060.38C2124.33,1060.99 2123.91,1061.78 2123.91,1062.76C2123.91,1063.54 2124.15,1064.19 2124.64,1064.71C2125.16,1065.2 2125.8,1065.6 2126.55,1065.92C2127.32,1066.21 2128.39,1066.54 2129.75,1066.92C2131.45,1067.38 2132.83,1067.84 2133.9,1068.3C2134.97,1068.73 2135.87,1069.39 2136.62,1070.29C2137.4,1071.18 2137.81,1072.35 2137.84,1073.79C2137.84,1075.09 2137.47,1076.26 2136.75,1077.3C2136.03,1078.33 2135.01,1079.16 2133.68,1079.76C2132.39,1080.34 2130.89,1080.63 2129.18,1080.63Z" style="fill:white;fill-rule:nonzero;"/>
                <path id="path1474" d="M2153.26,1056.1C2155.05,1056.1 2156.66,1056.49 2158.11,1057.27C2159.55,1058.02 2160.67,1059.16 2161.48,1060.69C2162.32,1062.21 2162.73,1064.08 2162.73,1066.27L2162.73,1080.24L2158.84,1080.24L2158.84,1066.83C2158.84,1064.46 2158.25,1062.66 2157.07,1061.42C2155.89,1060.15 2154.27,1059.52 2152.22,1059.52C2150.15,1059.52 2148.49,1060.17 2147.25,1061.47C2146.04,1062.76 2145.43,1064.65 2145.43,1067.13L2145.43,1080.24L2141.5,1080.24L2141.5,1048.23L2145.43,1048.23L2145.43,1059.91C2146.21,1058.7 2147.28,1057.76 2148.63,1057.1C2150.02,1056.43 2151.56,1056.1 2153.26,1056.1Z" style="fill:white;fill-rule:nonzero;"/>
                <path id="path1476" d="M2169.34,1052.69C2168.59,1052.69 2167.95,1052.43 2167.43,1051.91C2166.91,1051.39 2166.65,1050.75 2166.65,1050C2166.65,1049.25 2166.91,1048.62 2167.43,1048.1C2167.95,1047.58 2168.59,1047.32 2169.34,1047.32C2170.06,1047.32 2170.66,1047.58 2171.15,1048.1C2171.67,1048.62 2171.93,1049.25 2171.93,1050C2171.93,1050.75 2171.67,1051.39 2171.15,1051.91C2170.66,1052.43 2170.06,1052.69 2169.34,1052.69ZM2171.24,1056.54L2171.24,1080.24L2167.3,1080.24L2167.3,1056.54L2171.24,1056.54Z" style="fill:white;fill-rule:nonzero;"/>
                <path id="path1478" d="M2180,1060.9C2180.78,1059.55 2181.93,1058.42 2183.46,1057.53C2185.02,1056.61 2186.82,1056.15 2188.87,1056.15C2190.97,1056.15 2192.88,1056.65 2194.58,1057.66C2196.31,1058.67 2197.66,1060.1 2198.64,1061.94C2199.62,1063.76 2200.12,1065.88 2200.12,1068.3C2200.12,1070.69 2199.62,1072.83 2198.64,1074.7C2197.66,1076.58 2196.31,1078.03 2194.58,1079.07C2192.88,1080.11 2190.97,1080.63 2188.87,1080.63C2186.85,1080.63 2185.06,1080.18 2183.51,1079.29C2181.98,1078.36 2180.81,1077.22 2180,1075.87L2180,1091.48L2176.07,1091.48L2176.07,1056.54L2180,1056.54L2180,1060.9ZM2196.09,1068.3C2196.09,1066.51 2195.73,1064.95 2195.01,1063.63C2194.29,1062.3 2193.31,1061.29 2192.07,1060.6C2190.86,1059.91 2189.52,1059.56 2188.05,1059.56C2186.61,1059.56 2185.26,1059.92 2184.03,1060.64C2182.81,1061.34 2181.83,1062.36 2181.08,1063.71C2180.36,1065.04 2180,1066.58 2180,1068.34C2180,1070.13 2180.36,1071.7 2181.08,1073.06C2181.83,1074.38 2182.81,1075.41 2184.03,1076.13C2185.26,1076.82 2186.61,1077.17 2188.05,1077.17C2189.52,1077.17 2190.86,1076.82 2192.07,1076.13C2193.31,1075.41 2194.29,1074.38 2195.01,1073.06C2195.73,1071.7 2196.09,1070.12 2196.09,1068.3Z" style="fill:white;fill-rule:nonzero;"/>
            </g>
            <g id="text554" transform="matrix(1.18443,0,0,1.17361,-1767.59,-671.582)">
                <path id="path1481" d="M1874.57,1080.54C1872.35,1080.54 1870.36,1080.18 1868.61,1079.46C1866.85,1078.74 1865.43,1077.67 1864.37,1076.26C1863.33,1074.85 1862.78,1073.14 1862.72,1071.15L1870.6,1071.15C1870.71,1072.28 1871.1,1073.14 1871.76,1073.75C1872.43,1074.33 1873.29,1074.61 1874.36,1074.61C1875.45,1074.61 1876.32,1074.37 1876.95,1073.88C1877.59,1073.36 1877.9,1072.65 1877.9,1071.76C1877.9,1071.01 1877.64,1070.39 1877.13,1069.9C1876.63,1069.41 1876.02,1069.01 1875.27,1068.69C1874.55,1068.37 1873.51,1068.01 1872.15,1067.61C1870.19,1067 1868.59,1066.4 1867.35,1065.79C1866.11,1065.18 1865.04,1064.29 1864.15,1063.11C1863.26,1061.93 1862.81,1060.38 1862.81,1058.48C1862.81,1055.66 1863.83,1053.45 1865.88,1051.86C1867.93,1050.25 1870.6,1049.44 1873.88,1049.44C1877.23,1049.44 1879.92,1050.25 1881.97,1051.86C1884.02,1053.45 1885.11,1055.67 1885.26,1058.53L1877.26,1058.53C1877.2,1057.54 1876.84,1056.78 1876.17,1056.23C1875.51,1055.66 1874.66,1055.37 1873.62,1055.37C1872.73,1055.37 1872.01,1055.61 1871.46,1056.1C1870.91,1056.56 1870.64,1057.24 1870.64,1058.13C1870.64,1059.12 1871.1,1059.88 1872.02,1060.43C1872.94,1060.98 1874.39,1061.57 1876.35,1062.2C1878.31,1062.86 1879.89,1063.5 1881.11,1064.1C1882.35,1064.71 1883.41,1065.59 1884.31,1066.74C1885.2,1067.9 1885.65,1069.38 1885.65,1071.2C1885.65,1072.93 1885.2,1074.5 1884.31,1075.91C1883.44,1077.33 1882.17,1078.45 1880.5,1079.29C1878.83,1080.12 1876.85,1080.54 1874.57,1080.54Z" style="fill:white;fill-rule:nonzero;"/>
                <path id="path1483" d="M1910.15,1049.87L1910.15,1055.8L1902.11,1055.8L1902.11,1080.24L1894.71,1080.24L1894.71,1055.8L1886.67,1055.8L1886.67,1049.87L1910.15,1049.87Z" style="fill:white;fill-rule:nonzero;"/>
                <path id="path1485" d="M1930.9,1074.87L1919.57,1074.87L1917.75,1080.24L1910.01,1080.24L1921,1049.87L1929.56,1049.87L1940.55,1080.24L1932.72,1080.24L1930.9,1074.87ZM1929,1069.16L1925.23,1058.05L1921.51,1069.16L1929,1069.16Z" style="fill:white;fill-rule:nonzero;"/>
                <path id="path1487" d="M1957.48,1080.24L1951.17,1068.78L1949.4,1068.78L1949.4,1080.24L1942,1080.24L1942,1049.87L1954.41,1049.87C1956.81,1049.87 1958.84,1050.29 1960.51,1051.13C1962.21,1051.96 1963.48,1053.12 1964.32,1054.59C1965.15,1056.03 1965.57,1057.64 1965.57,1059.43C1965.57,1061.45 1965,1063.25 1963.84,1064.84C1962.72,1066.42 1961.05,1067.55 1958.83,1068.21L1965.83,1080.24L1957.48,1080.24ZM1949.4,1063.54L1953.98,1063.54C1955.34,1063.54 1956.35,1063.21 1957.01,1062.55C1957.7,1061.88 1958.05,1060.95 1958.05,1059.74C1958.05,1058.58 1957.7,1057.67 1957.01,1057.01C1956.35,1056.35 1955.34,1056.02 1953.98,1056.02L1949.4,1056.02L1949.4,1063.54Z" style="fill:white;fill-rule:nonzero;"/>
                <path id="path1489" d="M1990.17,1049.87L1990.17,1055.8L1982.12,1055.8L1982.12,1080.24L1974.73,1080.24L1974.73,1055.8L1966.68,1055.8L1966.68,1049.87L1990.17,1049.87Z" style="fill:white;fill-rule:nonzero;"/>
                <path id="path1491" d="M1999.28,1049.87L1999.28,1068.04C1999.28,1069.86 1999.73,1071.26 2000.62,1072.24C2001.51,1073.22 2002.83,1073.71 2004.56,1073.71C2006.29,1073.71 2007.61,1073.22 2008.53,1072.24C2009.46,1071.26 2009.92,1069.86 2009.92,1068.04L2009.92,1049.87L2017.31,1049.87L2017.31,1068C2017.31,1070.71 2016.74,1073 2015.58,1074.87C2014.43,1076.75 2012.87,1078.16 2010.91,1079.11C2008.98,1080.06 2006.82,1080.54 2004.42,1080.54C2002.03,1080.54 1999.88,1080.08 1997.98,1079.16C1996.11,1078.2 1994.62,1076.79 1993.53,1074.92C1992.43,1073.01 1991.88,1070.71 1991.88,1068L1991.88,1049.87L1999.28,1049.87Z" style="fill:white;fill-rule:nonzero;"/>
                <path id="path1493" d="M2043.77,1059.65C2043.77,1061.41 2043.37,1063.02 2042.56,1064.49C2041.75,1065.93 2040.51,1067.1 2038.84,1068C2037.16,1068.89 2035.09,1069.34 2032.61,1069.34L2028.03,1069.34L2028.03,1080.24L2020.63,1080.24L2020.63,1049.87L2032.61,1049.87C2035.03,1049.87 2037.08,1050.29 2038.75,1051.13C2040.42,1051.96 2041.68,1053.12 2042.51,1054.59C2043.35,1056.06 2043.77,1057.75 2043.77,1059.65ZM2032.05,1063.45C2033.46,1063.45 2034.51,1063.12 2035.21,1062.46C2035.9,1061.8 2036.24,1060.86 2036.24,1059.65C2036.24,1058.44 2035.9,1057.5 2035.21,1056.84C2034.51,1056.17 2033.46,1055.84 2032.05,1055.84L2028.03,1055.84L2028.03,1063.45L2032.05,1063.45Z" style="fill:white;fill-rule:nonzero;"/>
                <path id="path1495" d="M2050.33,1053.29L2050.33,1063.37L2061.31,1063.37L2061.31,1066.61L2050.33,1066.61L2050.33,1076.99L2062.61,1076.99L2062.61,1080.24L2046.39,1080.24L2046.39,1050.05L2062.61,1050.05L2062.61,1053.29L2050.33,1053.29Z" style="fill:white;fill-rule:nonzero;"/>
                <path id="path1497" d="M2090.41,1080.24L2086.47,1080.24L2070.64,1056.23L2070.64,1080.24L2066.7,1080.24L2066.7,1050.05L2070.64,1050.05L2086.47,1074.01L2086.47,1050.05L2090.41,1050.05L2090.41,1080.24Z" style="fill:white;fill-rule:nonzero;"/>
                <path id="path1499" d="M2118.07,1058.83C2117.24,1057.07 2116.03,1055.71 2114.44,1054.76C2112.85,1053.78 2111.01,1053.29 2108.9,1053.29C2106.8,1053.29 2104.89,1053.78 2103.19,1054.76C2101.52,1055.71 2100.2,1057.1 2099.21,1058.91C2098.26,1060.7 2097.79,1062.78 2097.79,1065.14C2097.79,1067.51 2098.26,1069.58 2099.21,1071.37C2100.2,1073.16 2101.52,1074.54 2103.19,1075.52C2104.89,1076.47 2106.8,1076.95 2108.9,1076.95C2111.84,1076.95 2114.27,1076.07 2116.17,1074.31C2118.07,1072.55 2119.18,1070.17 2119.5,1067.17L2107.47,1067.17L2107.47,1063.97L2123.7,1063.97L2123.7,1067C2123.46,1069.48 2122.68,1071.76 2121.36,1073.84C2120.03,1075.88 2118.29,1077.51 2116.13,1078.72C2113.96,1079.9 2111.55,1080.5 2108.9,1080.5C2106.11,1080.5 2103.55,1079.85 2101.25,1078.55C2098.94,1077.22 2097.11,1075.39 2095.75,1073.06C2094.43,1070.72 2093.76,1068.08 2093.76,1065.14C2093.76,1062.2 2094.43,1059.56 2095.75,1057.23C2097.11,1054.86 2098.94,1053.03 2101.25,1051.73C2103.55,1050.41 2106.11,1049.75 2108.9,1049.75C2112.1,1049.75 2114.93,1050.54 2117.38,1052.12C2119.86,1053.71 2121.66,1055.94 2122.79,1058.83L2118.07,1058.83Z" style="fill:white;fill-rule:nonzero;"/>
                <rect id="path1501" x="2127.01" y="1050.09" width="3.936" height="30.146" style="fill:white;fill-rule:nonzero;"/>
                <path id="path1503" d="M2159.48,1080.24L2155.54,1080.24L2139.71,1056.23L2139.71,1080.24L2135.77,1080.24L2135.77,1050.05L2139.71,1050.05L2155.54,1074.01L2155.54,1050.05L2159.48,1050.05L2159.48,1080.24Z" style="fill:white;fill-rule:nonzero;"/>
                <path id="path1505" d="M2168.24,1053.29L2168.24,1063.37L2179.23,1063.37L2179.23,1066.61L2168.24,1066.61L2168.24,1076.99L2180.52,1076.99L2180.52,1080.24L2164.3,1080.24L2164.3,1050.05L2180.52,1050.05L2180.52,1053.29L2168.24,1053.29Z" style="fill:white;fill-rule:nonzero;"/>
                <path id="path1507" d="M2188.55,1053.29L2188.55,1063.37L2199.54,1063.37L2199.54,1066.61L2188.55,1066.61L2188.55,1076.99L2200.84,1076.99L2200.84,1080.24L2184.62,1080.24L2184.62,1050.05L2200.84,1050.05L2200.84,1053.29L2188.55,1053.29Z" style="fill:white;fill-rule:nonzero;"/>
                <path id="path1509" d="M2220.8,1080.24L2213.62,1067.91L2208.87,1067.91L2208.87,1080.24L2204.93,1080.24L2204.93,1050.09L2214.66,1050.09C2216.94,1050.09 2218.86,1050.48 2220.41,1051.26C2222,1052.04 2223.18,1053.09 2223.96,1054.42C2224.74,1055.74 2225.13,1057.26 2225.13,1058.96C2225.13,1061.03 2224.52,1062.86 2223.31,1064.45C2222.13,1066.04 2220.34,1067.09 2217.95,1067.61L2225.52,1080.24L2220.8,1080.24ZM2208.87,1064.75L2214.66,1064.75C2216.8,1064.75 2218.4,1064.23 2219.46,1063.2C2220.53,1062.13 2221.06,1060.72 2221.06,1058.96C2221.06,1057.17 2220.53,1055.79 2219.46,1054.81C2218.43,1053.83 2216.83,1053.34 2214.66,1053.34L2208.87,1053.34L2208.87,1064.75Z" style="fill:white;fill-rule:nonzero;"/>
                <path id="path1511" d="M2230.61,1080.5C2229.86,1080.5 2229.22,1080.24 2228.7,1079.72C2228.18,1079.2 2227.93,1078.57 2227.93,1077.82C2227.93,1077.07 2228.18,1076.43 2228.7,1075.91C2229.22,1075.39 2229.86,1075.13 2230.61,1075.13C2231.33,1075.13 2231.93,1075.39 2232.42,1075.91C2232.94,1076.43 2233.2,1077.07 2233.2,1077.82C2233.2,1078.57 2232.94,1079.2 2232.42,1079.72C2231.93,1080.24 2231.33,1080.5 2230.61,1080.5Z" style="fill:white;fill-rule:nonzero;"/>
                <path id="path1513" d="M2238.59,1052.69C2237.84,1052.69 2237.21,1052.43 2236.69,1051.91C2236.17,1051.39 2235.91,1050.75 2235.91,1050C2235.91,1049.25 2236.17,1048.62 2236.69,1048.1C2237.21,1047.58 2237.84,1047.32 2238.59,1047.32C2239.31,1047.32 2239.92,1047.58 2240.41,1048.1C2240.93,1048.62 2241.19,1049.25 2241.19,1050C2241.19,1050.75 2240.93,1051.39 2240.41,1051.91C2239.92,1052.43 2239.31,1052.69 2238.59,1052.69ZM2240.5,1056.54L2240.5,1080.24L2236.56,1080.24L2236.56,1056.54L2240.5,1056.54Z" style="fill:white;fill-rule:nonzero;"/>
                <path id="path1515" d="M2255.66,1080.63C2253.44,1080.63 2251.42,1080.12 2249.61,1079.11C2247.82,1078.1 2246.41,1076.68 2245.37,1074.83C2244.36,1072.96 2243.86,1070.79 2243.86,1068.34C2243.86,1065.92 2244.37,1063.79 2245.41,1061.94C2246.48,1060.07 2247.92,1058.64 2249.74,1057.66C2251.55,1056.65 2253.59,1056.15 2255.84,1056.15C2258.08,1056.15 2260.12,1056.65 2261.93,1057.66C2263.75,1058.64 2265.18,1060.05 2266.22,1061.9C2267.28,1063.74 2267.82,1065.89 2267.82,1068.34C2267.82,1070.79 2267.27,1072.96 2266.17,1074.83C2265.11,1076.68 2263.65,1078.1 2261.8,1079.11C2259.96,1080.12 2257.91,1080.63 2255.66,1080.63ZM2255.66,1077.17C2257.08,1077.17 2258.4,1076.84 2259.64,1076.17C2260.88,1075.51 2261.88,1074.51 2262.63,1073.19C2263.4,1071.86 2263.79,1070.25 2263.79,1068.34C2263.79,1066.44 2263.42,1064.83 2262.67,1063.5C2261.92,1062.17 2260.94,1061.19 2259.73,1060.56C2258.52,1059.89 2257.2,1059.56 2255.79,1059.56C2254.35,1059.56 2253.02,1059.89 2251.81,1060.56C2250.63,1061.19 2249.68,1062.17 2248.96,1063.5C2248.24,1064.83 2247.88,1066.44 2247.88,1068.34C2247.88,1070.28 2248.22,1071.9 2248.91,1073.23C2249.64,1074.56 2250.59,1075.55 2251.77,1076.21C2252.95,1076.85 2254.25,1077.17 2255.66,1077.17Z" style="fill:white;fill-rule:nonzero;"/>
            </g>
            <g id="g5726" transform="matrix(1,0,0,1,0.644797,0)">
                <g id="polygon556" transform="matrix(0.455467,0,0,0.451306,353.349,270.829)">
                    <path d="M271.8,279.2L185.9,279.2L185.9,301.9L216,301.9L216,384.8L241.7,384.8L241.7,301.9L271.8,301.9L271.8,279.2Z" style="fill:white;fill-rule:nonzero;"/>
                </g>
                <g id="polygon558" transform="matrix(0.455467,0,0,0.451306,353.349,270.829)">
                    <path d="M466.7,279.2L440.9,279.2L440.9,320.7L406.5,320.7L406.5,279.2L380.8,279.2L380.8,384.8L406.5,384.8L406.5,343.4L440.9,343.4L440.9,384.8L466.7,384.8L466.7,279.2Z" style="fill:white;fill-rule:nonzero;"/>
                </g>
                <g id="polygon560" transform="matrix(0.455467,0,0,0.451306,353.349,270.829)">
                    <path d="M565.4,279.2L539.6,279.2L539.6,320.7L505.3,320.7L505.3,279.2L479.5,279.2L479.5,384.8L505.3,384.8L505.3,343.4L539.6,343.4L539.6,384.8L565.4,384.8L565.4,279.2Z" style="fill:white;fill-rule:nonzero;"/>
                </g>
                <path id="path562" d="M501.376,445.168C512.17,445.168 520.961,436.548 520.961,425.942L520.961,396.833L509.301,396.833L509.301,425.942C509.301,430.23 505.748,433.705 501.376,433.705C497.049,433.705 493.496,430.23 493.451,425.942L493.451,396.833L481.791,396.833L481.791,425.942C481.836,436.548 490.581,445.168 501.376,445.168Z" style="fill:white;fill-rule:nonzero;"/>
            </g>
        </g>
        <rect id="rect568" x="273.978" y="443.486" width="41.969" height="153.036" style="fill:white;fill-rule:nonzero;"/>
        <g id="g9297">
            <rect id="rect566" x="194.236" y="396.833" width="41.969" height="199.612" style="fill:white;fill-rule:nonzero;"/>
            <rect id="rect570" x="114.494" y="396.833" width="154.447" height="41.586" style="fill:white;fill-rule:nonzero;"/>
        </g>
        <rect id="rect572" x="321.082" y="396.833" width="75.545" height="41.586" style="fill:white;fill-rule:nonzero;"/>
        <rect id="rect574" x="321.082" y="554.971" width="75.545" height="41.586" style="fill:white;fill-rule:nonzero;"/>
        <rect id="rect576" x="321.082" y="477.626" width="75.545" height="41.586" style="fill:white;fill-rule:nonzero;"/>
        <rect id="rect578" x="273.978" y="396.833" width="41.969" height="41.586" style="fill:white;fill-rule:nonzero;"/>
        <g id="g32218" transform="matrix(0.91332,0,0,0.91332,-182.079,-204.558)">
            <g id="text12608-7">
                <path id="path1528" d="M355.354,823.081C355.354,820.459 355.824,818.406 356.764,816.921C357.718,815.436 359.294,814.694 361.492,814.694C363.689,814.694 365.257,815.436 366.197,816.921C367.151,818.406 367.629,820.459 367.629,823.081C367.629,825.717 367.151,827.786 366.197,829.286C365.257,830.786 363.689,831.536 361.491,831.536C359.294,831.536 357.718,830.786 356.764,829.286C355.824,827.786 355.354,825.717 355.354,823.081ZM364.492,823.081C364.492,821.959 364.416,821.02 364.265,820.262C364.128,819.49 363.84,818.861 363.401,818.376C362.977,817.891 362.34,817.648 361.492,817.648C360.643,817.648 359.999,817.891 359.559,818.376C359.135,818.861 358.847,819.49 358.696,820.262C358.559,821.02 358.491,821.959 358.491,823.081C358.491,824.232 358.559,825.202 358.696,825.99C358.832,826.763 359.12,827.392 359.559,827.877C359.999,828.347 360.643,828.581 361.492,828.581C362.34,828.581 362.984,828.347 363.424,827.877C363.863,827.392 364.151,826.763 364.287,825.99C364.424,825.202 364.492,824.232 364.492,823.081Z" style="fill:white;fill-rule:nonzero;"/>
                <g id="path1530" transform="matrix(1,0,0,1,-2.90978,0)">
                    <path d="M374.651,817.944L374.651,815.012L380.129,815.012L380.129,831.582L376.856,831.582L376.856,817.944L374.651,817.944Z" style="fill:white;fill-rule:nonzero;"/>
                </g>
                <g id="path1532" transform="matrix(1,0,0,1,3.47021,0)">
                    <path d="M354.968,836.128L354.968,833.196L360.446,833.196L360.446,849.765L357.173,849.765L357.173,836.128L354.968,836.128Z" style="fill:white;fill-rule:nonzero;"/>
                </g>
                <path id="path1534" d="M368.583,841.265C368.583,838.643 369.052,836.59 369.992,835.105C370.947,833.62 372.522,832.877 374.72,832.877C376.917,832.877 378.485,833.62 379.425,835.105C380.379,836.59 380.857,838.643 380.857,841.265C380.857,843.901 380.379,845.97 379.425,847.47C378.485,848.97 376.917,849.72 374.72,849.72C372.522,849.72 370.947,848.97 369.992,847.47C369.052,845.97 368.583,843.901 368.583,841.265ZM377.72,841.265C377.72,840.143 377.644,839.204 377.493,838.446C377.356,837.673 377.068,837.044 376.629,836.56C376.205,836.075 375.568,835.832 374.72,835.832C373.871,835.832 373.227,836.075 372.788,836.56C372.363,837.044 372.075,837.673 371.924,838.446C371.788,839.204 371.719,840.143 371.719,841.265C371.719,842.416 371.788,843.386 371.924,844.174C372.06,844.947 372.348,845.576 372.788,846.061C373.227,846.53 373.871,846.765 374.72,846.765C375.568,846.765 376.212,846.53 376.652,846.061C377.091,845.576 377.379,844.947 377.515,844.174C377.652,843.386 377.72,842.416 377.72,841.265Z" style="fill:white;fill-rule:nonzero;"/>
            </g>
        </g>
    </g>
    <g transform="matrix(1.11348,0,0,1.11348,-2.8971,52.8388)">
        <path d="M32.167,58.331L46.451,58.331L47.668,69.083L50.557,70.743L59.408,64.324L69.509,74.43L62.953,83.792L64.376,86.231L76.242,89.224L76.323,102.431L64.213,103.97L63.041,106.864L69.536,116.096L59.226,126.413L50.98,120.307L47.266,120.793L45.898,131.815L31.196,131.383L30.081,121.109L26.816,119.37L18.395,126.165L8.218,115.452L14.794,107.274L13.383,103.676L2.602,102.216L2.931,87.314L13.107,86.031L14.764,82.631L8.175,74.47L18.694,64.344L26.816,70.631L30.701,69.047L32.167,58.331ZM38.704,75.02C49.772,75.02 58.758,84.006 58.758,95.073C58.758,106.141 49.772,115.127 38.704,115.127C27.636,115.127 18.651,106.141 18.651,95.073C18.651,84.006 27.636,75.02 38.704,75.02Z" style="fill:white;stroke:white;stroke-width:0.9px;"/>
    </g>
    <g transform="matrix(0.979304,0,0,0.979304,-65.7616,11.2188)">
        <path d="M160.115,89.541L170.266,89.541L171.13,97.181L173.183,98.361L179.473,93.799L186.65,100.98L181.992,107.633L183.003,109.366L191.434,111.492L191.491,120.877L182.886,121.971L182.054,124.027L186.669,130.587L179.343,137.918L173.484,133.579L170.844,133.925L169.873,141.757L159.426,141.45L158.634,134.149L156.313,132.914L150.33,137.742L143.098,130.13L147.771,124.318L146.769,121.762L139.108,120.725L139.342,110.136L146.572,109.224L147.75,106.808L143.068,101.009L150.542,93.814L156.313,98.281L159.074,97.156L160.115,89.541ZM165.3,107.35C169.88,107.35 173.599,111.068 173.599,115.649C173.599,120.23 169.88,123.948 165.3,123.948C160.719,123.948 157,120.23 157,115.649C157,111.068 160.719,107.35 165.3,107.35Z" style="fill:white;stroke:white;stroke-width:1.02px;"/>
    </g>
</svg>
