<?xml version="1.0" encoding="utf-8"?>
<!-- Generator: Adobe Illustrator 25.1.0, SVG Export Plug-In . SVG Version: 6.00 Build 0)  -->
<svg version="1.1" id="Layer_1" xmlns="http://www.w3.org/2000/svg" xmlns:xlink="http://www.w3.org/1999/xlink" x="0px" y="0px"
	 viewBox="0 0 809.79 355.52" style="enable-background:new 0 0 809.79 355.52;" xml:space="preserve">
<style type="text/css">
	.st0{fill:#FFFFFF;}
</style>
<g id="Subtitle">
	<path class="st0" d="M13.93,290.55H19l5.8,41.72h0.11l19-41.72h5.4L47.94,339h-4.78c0.57-13.79,1.14-27.51,1.71-41.3h-0.11
		L26.22,339h-4.49l-5.69-41.3h-0.11L4.78,339H0L13.93,290.55z"/>
	<path class="st0" d="M58.86,308.61c5.06-3.78,8.53-5.46,12.51-5.46c3.75,0,6.65,1.68,6.65,7c0,1.4-0.23,3.43-1.08,7.7
		c-0.85,4.34-2.73,14.56-2.73,16.38c0,0.98,0.57,1.54,1.14,1.54c0.63,0,1.42-0.42,2.67-1.4l1.14,2.45
		c-2.79,2.38-4.55,3.15-5.97,3.15c-2.73,0-3.07-2.52-3.07-5.39c-2.28,3.15-4.95,5.39-8.53,5.39c-4.61,0-7.51-3.64-7.51-9.17
		c0-10.64,12-12.81,18.6-13.65c0.4-1.96,0.8-4.83,0.8-6.23c0-2.73-1.42-3.57-3.36-3.57c-2.33,0-6.77,2.45-9.38,4.76L58.86,308.61z
		 M62.96,335.78c2.62,0,4.21-1.33,7.34-5.11c0.4-3.01,1.08-6.72,1.76-10.08c-8.53,1.33-13.42,4.69-13.42,9.8
		C58.64,333.47,60.34,335.78,62.96,335.78z"/>
	<path class="st0" d="M107.09,307.7c-0.97-0.21-1.59-0.35-3.24-0.35c-8.42,0-15.36,7.63-15.36,18.13c0,5.11,1.82,10.29,6.71,10.29
		c3.07,0,5.8-1.4,8.42-3.64l1.82,3.01c-2.67,2.31-6.43,4.83-10.46,4.83c-7.34,0-11.03-6.16-11.03-13.3
		c0-14.91,9.21-23.52,20.02-23.52c1.48,0,2.9,0.21,4.38,0.42L107.09,307.7z"/>
	<path class="st0" d="M117.16,287.05h4.55l-4.38,23.8l0.11,0.14c2.79-3.92,7.34-7.84,11.6-7.84c3.18,0,6.2,1.96,6.2,6.37
		c0,1.96-0.23,3.92-0.68,6.72L130.69,339h-4.55l3.75-21.7c0.57-3.15,0.8-4.76,0.8-6.37c0-2.59-1.42-3.57-3.47-3.57
		c-2.39,0-5.63,2.52-10.29,7.91L112.78,339h-4.55L117.16,287.05z"/>
	<path class="st0" d="M146.79,304.13h4.55L145.36,339h-4.55L146.79,304.13z M149.06,290.55h4.55l-1.02,5.88h-4.55L149.06,290.55z"/>
	<path class="st0" d="M161.63,304.13h4.55l-1.42,6.72l0.11,0.14c2.79-3.92,7.34-7.84,11.6-7.84c3.18,0,6.2,1.96,6.2,6.37
		c0,1.96-0.23,3.92-0.68,6.72L178.12,339h-4.55l3.75-21.7c0.57-3.15,0.8-4.76,0.8-6.37c0-2.59-1.42-3.57-3.47-3.57
		c-2.39,0-5.63,2.52-10.29,7.91L160.21,339h-4.55L161.63,304.13z"/>
	<path class="st0" d="M193.14,321.5c-0.23,1.47-0.34,2.66-0.34,3.99c0,5.11,1.82,10.29,7,10.29c3.18,0,6.26-1.89,8.53-4.27
		l1.59,3.36c-2.84,2.59-6.6,5.11-10.64,5.11c-7.34,0-11.03-6.16-11.03-14.91c0-10.01,6.26-21.91,15.24-21.91
		c6.48,0,8.82,6.3,8.82,13.3c0,1.68-0.17,3.36-0.28,5.04H193.14z M208.1,317.71c0.06-0.84,0.11-1.75,0.11-2.66
		c0-4.2-1.02-8.12-5.29-8.12c-4.49,0-7.56,5.95-9.1,10.78H208.1z"/>
	<path class="st0" d="M240.74,290.55h4.78l-7.56,43.83h17.35l-0.8,4.62h-22.12L240.74,290.55z"/>
	<path class="st0" d="M265.82,321.5c-0.23,1.47-0.34,2.66-0.34,3.99c0,5.11,1.82,10.29,7,10.29c3.18,0,6.26-1.89,8.53-4.27
		l1.59,3.36c-2.84,2.59-6.6,5.11-10.64,5.11c-7.34,0-11.03-6.16-11.03-14.91c0-10.01,6.26-21.91,15.24-21.91
		c6.48,0,8.82,6.3,8.82,13.3c0,1.68-0.17,3.36-0.28,5.04H265.82z M280.78,317.71c0.06-0.84,0.11-1.75,0.11-2.66
		c0-4.2-1.02-8.12-5.29-8.12c-4.49,0-7.56,5.95-9.1,10.78H280.78z"/>
	<path class="st0" d="M292.72,308.61c5.06-3.78,8.53-5.46,12.51-5.46c3.75,0,6.65,1.68,6.65,7c0,1.4-0.23,3.43-1.08,7.7
		c-0.85,4.34-2.73,14.56-2.73,16.38c0,0.98,0.57,1.54,1.14,1.54c0.63,0,1.42-0.42,2.67-1.4l1.14,2.45
		c-2.79,2.38-4.55,3.15-5.97,3.15c-2.73,0-3.07-2.52-3.07-5.39c-2.27,3.15-4.95,5.39-8.53,5.39c-4.61,0-7.51-3.64-7.51-9.17
		c0-10.64,12-12.81,18.6-13.65c0.4-1.96,0.8-4.83,0.8-6.23c0-2.73-1.42-3.57-3.36-3.57c-2.33,0-6.77,2.45-9.38,4.76L292.72,308.61z
		 M296.82,335.78c2.62,0,4.21-1.33,7.34-5.11c0.4-3.01,1.08-6.72,1.76-10.08c-8.53,1.33-13.42,4.69-13.42,9.8
		C292.49,333.47,294.2,335.78,296.82,335.78z"/>
	<path class="st0" d="M322.81,304.13h4.32l-1.42,6.09l0.11,0.14c2.5-4.69,4.78-7.21,8.02-7.21c0.91,0,1.88,0.21,2.79,0.49
		l-1.14,5.04c-0.91-0.28-1.82-0.49-2.73-0.49c-2.79,0-5.35,3.08-7.22,7.07L321.38,339h-4.55L322.81,304.13z"/>
	<path class="st0" d="M341.74,304.13h4.55l-1.42,6.72l0.11,0.14c2.79-3.92,7.34-7.84,11.6-7.84c3.18,0,6.2,1.96,6.2,6.37
		c0,1.96-0.23,3.92-0.68,6.72L358.24,339h-4.55l3.75-21.7c0.57-3.15,0.8-4.76,0.8-6.37c0-2.59-1.42-3.57-3.47-3.57
		c-2.39,0-5.63,2.52-10.29,7.91L340.32,339h-4.55L341.74,304.13z"/>
	<path class="st0" d="M374.33,304.13h4.55L372.91,339h-4.55L374.33,304.13z M376.61,290.55h4.55l-1.02,5.88h-4.55L376.61,290.55z"/>
	<path class="st0" d="M389.18,304.13h4.55l-1.42,6.72l0.11,0.14c2.79-3.92,7.34-7.84,11.6-7.84c3.18,0,6.2,1.96,6.2,6.37
		c0,1.96-0.23,3.92-0.68,6.72L405.67,339h-4.55l3.75-21.7c0.57-3.15,0.8-4.76,0.8-6.37c0-2.59-1.42-3.57-3.47-3.57
		c-2.39,0-5.63,2.52-10.29,7.91L387.75,339h-4.55L389.18,304.13z"/>
	<path class="st0" d="M430.81,334.31c5.06,1.75,7.56,5.11,7.56,9.45c0,5.88-5.97,11.76-14.05,11.76c-4.72,0-11.43-2.66-11.43-9.03
		c0-4.83,2.16-7.77,8.42-10.85v-0.14c-6.09-1.82-6.54-3.22-6.54-4.41c0-1.54,0.68-3.08,7.62-6.72c-2.33-1.75-3.7-4.55-3.7-8.12
		c0-7.42,5.01-13.09,10.81-13.09c1.82,0,3.64,0.63,5.23,1.4l8.36-0.42l-0.57,3.5l-5.86-0.28c1.48,1.82,1.99,4.34,1.99,6.93
		c0,6.23-4.44,12.25-10.52,12.25c-1.42,0-2.62-0.21-3.75-0.77c-3.58,2.03-4.38,2.94-4.38,3.78c0,0.7,0.28,1.12,3.75,2.31
		L430.81,334.31z M424.1,336.55c-5.23,3.22-7.45,5.81-7.45,9.24c0,3.15,3.13,6.37,7.96,6.37c5.74,0,9.21-4.13,9.21-8.05
		c0-2.45-0.85-4.13-3.81-5.25L424.1,336.55z M428.02,323.18c4.44,0,6.54-5.18,6.54-10.15c0-4.06-1.99-6.51-5.23-6.51
		c-3.92,0-6.54,5.6-6.54,9.8C422.79,320.58,424.49,323.18,428.02,323.18z"/>
	<path class="st0" d="M466.01,304.13h4.55L464.59,339h-4.55L466.01,304.13z M468.29,290.55h4.55l-1.02,5.88h-4.55L468.29,290.55z"/>
	<path class="st0" d="M480.85,304.13h4.55l-1.42,6.72l0.11,0.14c2.79-3.92,7.34-7.84,11.6-7.84c3.18,0,6.2,1.96,6.2,6.37
		c0,1.96-0.23,3.92-0.68,6.72L497.35,339h-4.55l3.75-21.7c0.57-3.15,0.8-4.76,0.8-6.37c0-2.59-1.42-3.57-3.47-3.57
		c-2.39,0-5.63,2.52-10.29,7.91L479.43,339h-4.55L480.85,304.13z"/>
	<path class="st0" d="M531.47,290.55h19.17l-0.74,4.2h-14.33l-2.96,17.29h13.93l-0.74,4.2h-13.93l-3.19,18.55h16.66l-0.74,4.2
		h-21.44L531.47,290.55z"/>
	<path class="st0" d="M556.72,304.13h4.55l-1.42,6.72l0.11,0.14c2.79-3.92,7.34-7.84,11.6-7.84c3.18,0,6.2,1.96,6.2,6.37
		c0,1.96-0.23,3.92-0.68,6.72L573.22,339h-4.55l3.75-21.7c0.57-3.15,0.8-4.76,0.8-6.37c0-2.59-1.42-3.57-3.47-3.57
		c-2.39,0-5.63,2.52-10.29,7.91L555.3,339h-4.55L556.72,304.13z"/>
	<path class="st0" d="M598.35,334.31c5.06,1.75,7.56,5.11,7.56,9.45c0,5.88-5.97,11.76-14.05,11.76c-4.72,0-11.43-2.66-11.43-9.03
		c0-4.83,2.16-7.77,8.42-10.85v-0.14c-6.09-1.82-6.54-3.22-6.54-4.41c0-1.54,0.68-3.08,7.62-6.72c-2.33-1.75-3.7-4.55-3.7-8.12
		c0-7.42,5.01-13.09,10.81-13.09c1.82,0,3.64,0.63,5.23,1.4l8.36-0.42l-0.57,3.5l-5.86-0.28c1.48,1.82,1.99,4.34,1.99,6.93
		c0,6.23-4.44,12.25-10.52,12.25c-1.42,0-2.62-0.21-3.75-0.77c-3.58,2.03-4.38,2.94-4.38,3.78c0,0.7,0.28,1.12,3.75,2.31
		L598.35,334.31z M591.64,336.55c-5.23,3.22-7.45,5.81-7.45,9.24c0,3.15,3.13,6.37,7.96,6.37c5.74,0,9.21-4.13,9.21-8.05
		c0-2.45-0.85-4.13-3.81-5.25L591.64,336.55z M595.57,323.18c4.44,0,6.54-5.18,6.54-10.15c0-4.06-1.99-6.51-5.23-6.51
		c-3.92,0-6.54,5.6-6.54,9.8C590.33,320.58,592.04,323.18,595.57,323.18z"/>
	<path class="st0" d="M617.75,304.13h4.55L616.33,339h-4.55L617.75,304.13z M620.02,290.55h4.55l-1.02,5.88H619L620.02,290.55z"/>
	<path class="st0" d="M632.59,304.13h4.55l-1.42,6.72l0.11,0.14c2.79-3.92,7.34-7.84,11.6-7.84c3.18,0,6.2,1.96,6.2,6.37
		c0,1.96-0.23,3.92-0.68,6.72L649.08,339h-4.55l3.75-21.7c0.57-3.15,0.8-4.76,0.8-6.37c0-2.59-1.42-3.57-3.47-3.57
		c-2.39,0-5.63,2.52-10.29,7.91L631.17,339h-4.55L632.59,304.13z"/>
	<path class="st0" d="M664.1,321.5c-0.23,1.47-0.34,2.66-0.34,3.99c0,5.11,1.82,10.29,7,10.29c3.18,0,6.26-1.89,8.53-4.27l1.59,3.36
		c-2.84,2.59-6.6,5.11-10.64,5.11c-7.34,0-11.03-6.16-11.03-14.91c0-10.01,6.26-21.91,15.24-21.91c6.48,0,8.82,6.3,8.82,13.3
		c0,1.68-0.17,3.36-0.28,5.04H664.1z M679.06,317.71c0.06-0.84,0.11-1.75,0.11-2.66c0-4.2-1.02-8.12-5.29-8.12
		c-4.49,0-7.56,5.95-9.1,10.78H679.06z"/>
	<path class="st0" d="M692.53,321.5c-0.23,1.47-0.34,2.66-0.34,3.99c0,5.11,1.82,10.29,7,10.29c3.19,0,6.26-1.89,8.53-4.27
		l1.59,3.36c-2.84,2.59-6.6,5.11-10.64,5.11c-7.34,0-11.03-6.16-11.03-14.91c0-10.01,6.26-21.91,15.24-21.91
		c6.48,0,8.82,6.3,8.82,13.3c0,1.68-0.17,3.36-0.28,5.04H692.53z M707.49,317.71c0.06-0.84,0.11-1.75,0.11-2.66
		c0-4.2-1.02-8.12-5.29-8.12c-4.49,0-7.56,5.95-9.1,10.78H707.49z"/>
	<path class="st0" d="M721.08,304.13h4.32l-1.42,6.09l0.11,0.14c2.5-4.69,4.78-7.21,8.02-7.21c0.91,0,1.88,0.21,2.79,0.49
		l-1.14,5.04c-0.91-0.28-1.82-0.49-2.73-0.49c-2.79,0-5.35,3.08-7.22,7.07L719.66,339h-4.55L721.08,304.13z"/>
	<path class="st0" d="M740.99,304.13h4.55L739.57,339h-4.55L740.99,304.13z M743.26,290.55h4.55l-1.02,5.88h-4.55L743.26,290.55z"/>
	<path class="st0" d="M755.83,304.13h4.55l-1.42,6.72l0.11,0.14c2.79-3.92,7.34-7.84,11.6-7.84c3.19,0,6.2,1.96,6.2,6.37
		c0,1.96-0.23,3.92-0.68,6.72L772.33,339h-4.55l3.75-21.7c0.57-3.15,0.8-4.76,0.8-6.37c0-2.59-1.42-3.57-3.47-3.57
		c-2.39,0-5.63,2.52-10.29,7.91L754.41,339h-4.55L755.83,304.13z"/>
	<path class="st0" d="M797.46,334.31c5.06,1.75,7.56,5.11,7.56,9.45c0,5.88-5.97,11.76-14.05,11.76c-4.72,0-11.43-2.66-11.43-9.03
		c0-4.83,2.16-7.77,8.42-10.85v-0.14c-6.09-1.82-6.54-3.22-6.54-4.41c0-1.54,0.68-3.08,7.62-6.72c-2.33-1.75-3.7-4.55-3.7-8.12
		c0-7.42,5-13.09,10.81-13.09c1.82,0,3.64,0.63,5.23,1.4l8.36-0.42l-0.57,3.5l-5.86-0.28c1.48,1.82,1.99,4.34,1.99,6.93
		c0,6.23-4.44,12.25-10.52,12.25c-1.42,0-2.62-0.21-3.75-0.77c-3.58,2.03-4.38,2.94-4.38,3.78c0,0.7,0.28,1.12,3.75,2.31
		L797.46,334.31z M790.75,336.55c-5.23,3.22-7.45,5.81-7.45,9.24c0,3.15,3.13,6.37,7.96,6.37c5.74,0,9.21-4.13,9.21-8.05
		c0-2.45-0.85-4.13-3.81-5.25L790.75,336.55z M794.68,323.18c4.44,0,6.54-5.18,6.54-10.15c0-4.06-1.99-6.51-5.23-6.51
		c-3.92,0-6.54,5.6-6.54,9.8C789.44,320.58,791.15,323.18,794.68,323.18z"/>
</g>
<g>
	<path class="st0" d="M693.25,122.33c-1.12,0-2.23,0.21-3.29,0.62c-4.62,1.81-6.9,7.05-5.09,11.66c1.36,3.47,4.65,5.71,8.38,5.71
		c1.12,0,2.23-0.21,3.29-0.62c4.62-1.81,6.9-7.05,5.09-11.66C700.26,124.57,696.97,122.33,693.25,122.33z"/>
	<path id="L_x2B_Comp" class="st0" d="M636.12,89.86c-5.19,0-9.76,2.64-12.45,6.64l-33.24-16.67c0.56-1.57,0.88-3.26,0.88-5.02
		c0-8.28-6.72-15-15-15c-5.21,0-9.79,2.65-12.48,6.68l-33.69-16.89c0.46-1.44,0.71-2.97,0.71-4.56c0-8.28-6.72-15-15-15
		c-5.03,0-9.47,2.48-12.19,6.28l-31.89-15.99c0.63-1.66,1-3.46,1-5.34c0-8.24-6.64-14.91-14.86-14.99l0-0.01h-64.8l-2.16,249.12H567
		l1.08-54h-97.31c-0.02-1.7-0.33-3.33-0.87-4.85l34.15-17.26c2.63,4.33,7.38,7.23,12.81,7.23c8.28,0,15-6.72,15-15
		c0-2.03-0.41-3.95-1.13-5.72l32.95-16.66c2.66,4.18,7.32,6.95,12.64,6.95c8.28,0,15-6.72,15-15c0-1.91-0.37-3.73-1.02-5.41
		l33.06-16.71c2.64,4.3,7.37,7.17,12.78,7.17c8.28,0,15-6.72,15-15C651.12,96.58,644.41,89.86,636.12,89.86z M576.31,62.32
		c6.9,0,12.5,5.6,12.5,12.5c0,1.36-0.22,2.67-0.63,3.89l-22.09-11.08C568.35,64.42,572.08,62.32,576.31,62.32z M563.81,134.82
		c0-1.56,0.3-3.04,0.82-4.42l8.6,4.27l-8.67,4.38C564.08,137.73,563.81,136.3,563.81,134.82z M577.16,132.68l-6.2-9.15
		c1.62-0.77,3.43-1.22,5.35-1.22c4.33,0,8.14,2.2,10.39,5.54L577.16,132.68z M572.29,130.85l-6.29-3.12
		c0.67-0.98,1.48-1.86,2.4-2.61L572.29,130.85z M563.75,126.62l-15.13-7.5l7.75-11.76l10.64,15.7
		C565.74,124.06,564.64,125.26,563.75,126.62z M545.91,117.77l-15.53-7.7c0.62-1.64,0.97-3.41,0.97-5.26c0-1.58-0.25-3.11-0.7-4.54
		l15.66-7.76l8.25,12.17L545.91,117.77z M527.04,158.02l-6.1,3.09l3.71-5.63C525.56,156.21,526.36,157.06,527.04,158.02z
		 M504.35,165.24c0-1.43,0.25-2.8,0.7-4.08l8,3.93l-8.06,4.07C504.58,167.93,504.35,166.61,504.35,165.24z M468.8,143.33l15.13,7.44
		l-20.76,31.48c-2.14-1.22-4.61-1.94-7.25-1.96l0.33-30.1C461.52,150.18,466.14,147.45,468.8,143.33z M470.17,140.66
		c0.67-1.7,1.04-3.54,1.04-5.47c0-1.76-0.32-3.45-0.88-5.02l15.82-7.85l8.24,12.57l-8.8,13.35L470.17,140.66z M457.25,60.12
		l0.33-30.13c0.06,0,0.12,0.01,0.19,0.01c2.57,0,4.99-0.65,7.11-1.79l20.68,31.2l-15.89,8.08
		C467.14,63.21,462.55,60.29,457.25,60.12z M487.23,61.92l8.1,12.23l-9.29,13.94l-15.3-7.59c0.65-1.68,1.02-3.5,1.02-5.41
		c0-1.71-0.3-3.35-0.83-4.88L487.23,61.92z M503.35,45.05c0-1.78,0.38-3.46,1.04-4.99l9.68,4.86l-9.76,4.96
		C503.69,48.39,503.35,46.76,503.35,45.05z M524.11,54.41l-4.59-6.78l7.18,3.6C526.01,52.44,525.14,53.51,524.11,54.41z
		 M528.85,104.81c0,1.46-0.26,2.85-0.72,4.15l-7.5-3.72l7.74-3.84C528.67,102.49,528.85,103.63,528.85,104.81z M503.85,104.81
		c0-1.47,0.27-2.87,0.73-4.18l9.3,4.61l-9.03,4.48C504.21,108.21,503.85,106.55,503.85,104.81z M505.91,97.94
		c0.82-1.25,1.87-2.33,3.07-3.21l4.67,7.05L505.91,97.94z M503.67,96.83l-14.91-7.39l8.38-12.57l10.46,15.78
		C506.03,93.77,504.7,95.19,503.67,96.83z M502.33,99.51c-0.62,1.65-0.98,3.43-0.98,5.3c0,2.14,0.46,4.17,1.26,6.01l-15.4,7.64
		l-8.83-13.47l8.69-13.04L502.33,99.51z M504.09,113.44c0.74,1.05,1.61,2,2.59,2.83l-10.48,15.9l-7.33-11.18L504.09,113.44z
		 M506.37,112.31l4.35-2.16l-2.64,4.01C507.44,113.6,506.87,112.98,506.37,112.31z M516.06,107.51l1.2-0.59l9.55,4.74
		c-2.23,3.41-6.08,5.66-10.46,5.66c-2.1,0-4.07-0.52-5.81-1.44L516.06,107.51z M518.14,103.12l-6.54-9.87
		c1.47-0.6,3.07-0.94,4.75-0.94c4.65,0,8.7,2.55,10.86,6.32L518.14,103.12z M516.35,89.81c-2.19,0-4.27,0.48-6.15,1.33l-11.26-16.98
		l10.4-15.61c1.97,0.95,4.17,1.5,6.51,1.5c2.61,0,5.07-0.67,7.21-1.84L544.61,90l-15.15,7.51
		C526.89,92.92,521.98,89.81,516.35,89.81z M515.85,57.55c-1.82,0-3.55-0.4-5.11-1.1l5.52-8.27l5.38,7.94
		C519.91,57.03,517.94,57.55,515.85,57.55z M511.82,49.42l-3.65,5.48c-0.89-0.7-1.68-1.51-2.36-2.42L511.82,49.42z M506.78,56.98
		l-9.64,14.46l-7.22-10.89l13.63-6.93C504.45,54.91,505.54,56.03,506.78,56.98z M469.26,75.1c0,1.51-0.28,2.95-0.77,4.29l-7.9-3.92
		l8.1-4.12C469.06,72.53,469.26,73.79,469.26,75.1z M467.14,82.07c-0.61,0.91-1.35,1.73-2.18,2.45l-3.43-5.23L467.14,82.07z
		 M469.38,83.18l14.98,7.43l-7.77,11.66l-10.25-15.63C467.53,85.65,468.55,84.48,469.38,83.18z M474.79,104.98l-11.38,17.07
		c-2.04-1.11-4.35-1.78-6.82-1.84l0.33-30.12c2.51-0.03,4.87-0.67,6.94-1.79L474.79,104.98z M476.57,107.7l7.93,12.1l-15.45,7.66
		c-0.85-1.41-1.91-2.67-3.17-3.73L476.57,107.7z M466.81,128.58l-6.2,3.07l3.88-5.82C465.39,126.63,466.17,127.55,466.81,128.58z
		 M468.09,131.29c0.4,1.23,0.63,2.54,0.63,3.9c0,1.54-0.29,3-0.8,4.36l-8.28-4.07L468.09,131.29z M496.19,137.63l10.74,16.38
		c-1.1,0.97-2.05,2.09-2.82,3.34l-15.8-7.77L496.19,137.63z M508.32,156.12l3.19,4.87l-5.15-2.53
		C506.91,157.6,507.57,156.82,508.32,156.12z M516.25,162.76l-5.52-8.41c1.81-1.02,3.89-1.6,6.11-1.6c1.87,0,3.65,0.42,5.24,1.16
		L516.25,162.76z M516.85,150.24c-2.73,0-5.28,0.74-7.48,2.01l-11.37-17.35l11.16-16.93c2.14,1.17,4.59,1.84,7.19,1.84
		c5.36,0,10.05-2.82,12.7-7.05l15.2,7.53l-20.77,31.5C521.48,150.81,519.23,150.24,516.85,150.24z M549.02,91.16l15.18-7.53
		c0.72,0.98,1.54,1.88,2.47,2.66l-10.33,15.66L549.02,91.16z M566.47,82.51l4.01-1.99l-2.42,3.67
		C567.48,83.68,566.94,83.12,566.47,82.51z M563.81,74.82c0-1.6,0.31-3.13,0.86-4.54l9.44,4.73l-0.35,0.54l-8.84,4.38
		C564.21,78.37,563.81,76.64,563.81,74.82z M575.81,77.87l2.02-1l9.08,4.55c-2.21,3.53-6.12,5.89-10.6,5.89
		c-2.09,0-4.05-0.52-5.78-1.42L575.81,77.87z M562.42,69.15c-0.71,1.75-1.12,3.66-1.12,5.67c0,2.22,0.5,4.33,1.36,6.23l-15.35,7.61
		L525.52,56.5c1.37-1.16,2.53-2.56,3.41-4.14L562.42,69.15z M515.85,32.55c6.9,0,12.5,5.6,12.5,12.5c0,1.19-0.18,2.33-0.49,3.42
		l-21.94-11C508.21,34.48,511.8,32.55,515.85,32.55z M502.16,38.93c-0.84,1.87-1.31,3.93-1.31,6.11c0,2.12,0.44,4.13,1.24,5.96
		l-13.83,7.03l-20.89-31.51c1.2-1,2.23-2.18,3.06-3.5L502.16,38.93z M465.97,24.42l-3.61-5.44l5.83,2.92
		C467.57,22.84,466.82,23.68,465.97,24.42z M457.77,2.5c6.9,0,12.5,5.6,12.5,12.5c0,1.48-0.27,2.9-0.74,4.21l-11.11-5.57l-1.3,2.59
		L457,16.32l6.49,9.79c-1.71,0.88-3.66,1.39-5.72,1.39c-6.9,0-12.5-5.6-12.5-12.5S450.87,2.5,457.77,2.5z M456.76,62.6
		c4.53,0,8.49,2.42,10.68,6.03l-10.87,5.53l0.68,1.34l-1.25,0.82l6.49,9.89c-1.71,0.88-3.66,1.39-5.72,1.39
		c-6.9,0-12.5-5.6-12.5-12.5C444.26,68.19,449.86,62.6,456.76,62.6z M456.22,122.69c2.1,0,4.07,0.52,5.8,1.43L455,134.66l1.25,0.83
		l-0.66,1.35l10.96,5.39c-2.25,3.3-6.04,5.47-10.33,5.47c-6.9,0-12.5-5.6-12.5-12.5S449.31,122.69,456.22,122.69z M468.27,195.29
		c0,6.9-5.6,12.5-12.5,12.5c-6.9,0-12.5-5.6-12.5-12.5s5.6-12.5,12.5-12.5c2.19,0,4.24,0.57,6.03,1.55L455,194.66l1.25,0.83
		l0.68,1.34l10.72-5.42C468.05,192.63,468.27,193.93,468.27,195.29z M466.37,188.69l-5.77,2.92l3.63-5.5
		C465.06,186.86,465.78,187.73,466.37,188.69z M468.6,187.56c-0.81-1.34-1.81-2.54-2.98-3.56l21.03-31.89l16.14,7.94
		c-0.6,1.62-0.94,3.36-0.94,5.19c0,1.78,0.33,3.48,0.89,5.06L468.6,187.56z M529.35,165.24c0,6.9-5.6,12.5-12.5,12.5
		c-4.46,0-8.37-2.34-10.58-5.86l10.14-5.13l0.17,0.08l0.11-0.22l0.71-0.36l0.1,0.06l0.11-0.17l10.86-5.49
		C529.03,162.08,529.35,163.62,529.35,165.24z M529.3,156.87c-0.9-1.33-2.01-2.5-3.28-3.49l20.93-31.75l15.42,7.64
		c-0.68,1.71-1.07,3.58-1.07,5.53c0,1.89,0.37,3.7,1.01,5.37L529.3,156.87z M588.81,134.82c0,6.9-5.6,12.5-12.5,12.5
		c-4.34,0-8.17-2.22-10.41-5.58l22.14-11.19C588.53,131.88,588.81,133.31,588.81,134.82z M588.93,126.73
		c-2.67-4.15-7.32-6.91-12.62-6.91c-2.44,0-4.73,0.59-6.77,1.63l-11.38-16.79l10.98-16.65c2.13,1.16,4.57,1.82,7.17,1.82
		c5.45,0,10.21-2.92,12.84-7.27l33.11,16.6c-0.73,1.76-1.13,3.69-1.13,5.71c0,1.8,0.33,3.52,0.92,5.13L588.93,126.73z
		 M623.62,104.86c0-1.62,0.32-3.16,0.88-4.59l8.41,4.22l-8.63,4.36C623.86,107.6,623.62,106.26,623.62,104.86z M636.12,117.36
		c-4.44,0-8.32-2.32-10.54-5.8l11.34-5.73l-0.68-1.34l0.67-1.34l-10.99-5.51c2.27-3.19,5.98-5.28,10.19-5.28
		c6.9,0,12.5,5.6,12.5,12.5S643.03,117.36,636.12,117.36z"/>
	<path id="M" class="st0" d="M59.76,0h81.36l36,182.16h0.72L222.48,0h81.36l49.32,249.12h-64.8L261,71.28h-0.72L216,249.12h-74.52
		l-41.4-177.84h-0.72l-36,177.84H0L59.76,0z"/>
	<path id="Gear_Big" class="st0" d="M664.01,114.79l10.78-1.25l0.87-12.85l-10.52-2.69c-0.46-2.09-1.15-4.15-2.07-6.13l6.75-8.52
		l-8.47-9.7l-9.35,5.54c-1.84-1.18-3.79-2.14-5.8-2.88l-1.25-10.79l-12.85-0.87l-2.69,10.51c-2.1,0.46-4.16,1.15-6.15,2.07
		l-8.5-6.74l-9.7,8.47l5.52,9.32c-1.19,1.85-2.16,3.8-2.9,5.83l-10.76,1.25l-0.87,12.85l10.48,2.68c0.46,2.11,1.16,4.18,2.08,6.18
		l-6.72,8.48l8.47,9.7l9.31-5.51c1.85,1.19,3.81,2.16,5.84,2.9l1.25,10.75l12.85,0.87l2.69-10.49c2.11-0.46,4.17-1.16,6.16-2.09
		l8.49,6.73l9.7-8.47l-5.53-9.34C662.3,118.75,663.27,116.8,664.01,114.79z M630.32,121.49c-9.15-3.12-14.03-13.07-10.91-22.21
		s13.07-14.03,22.21-10.91c9.15,3.12,14.03,13.07,10.91,22.21S639.47,124.61,630.32,121.49z"/>
	<g>
		<path class="st0" d="M663.46,120.62l2.65,4.48l3.93-9l-4.61,0.53C664.87,118,664.21,119.33,663.46,120.62z"/>
		<path class="st0" d="M701.66,157.81l-3.96,1.55l-3.91-5.71c-0.18,0-0.35,0.01-0.53,0.01c-0.47,0-0.93-0.02-1.4-0.04l-4.12,5.56
			l-10.98-4.79l1.28-6.82c-0.46-0.44-0.91-0.9-1.33-1.38l-6.86,1.02l-4.38-11.15l5.72-3.92c-0.02-0.64,0-1.28,0.04-1.91l-3.72-2.75
			l1.69,2.86L657.02,141l-8.85-7.01c-1.38,0.58-2.79,1.06-4.23,1.43l-2.8,10.93l-4.69-0.32l-0.89,103.08h172.08v-51.84H701.07
			L701.66,157.81z"/>
		<path class="st0" d="M809.79,51.84V0H637.71l-0.55,62.98l9.57,0.65l1.3,11.24c1.36,0.56,2.69,1.22,3.97,1.97l9.74-5.77
			l10.66,12.21l-7.03,8.88c0.57,1.37,1.05,2.77,1.42,4.2l10.97,2.81l-1.1,16.16l-3.2,0.37l3.79,0.71c0.44-0.47,0.91-0.92,1.39-1.34
			l-1.02-6.84l11.15-4.38l3.9,5.7c0.19-0.01,0.39-0.01,0.58-0.01c0.46,0,0.91,0.01,1.37,0.04l4.11-5.55l10.98,4.79l-1.27,6.77
			c0.48,0.45,0.93,0.92,1.37,1.42l6.81-1.01l4.37,11.15l-5.68,3.89c0.02,0.66,0,1.31-0.04,1.97l5.54,4.1l-4.79,10.97l-6.78-1.27
			c-0.45,0.47-0.92,0.92-1.41,1.35l0.18,1.24h100.69V99.72H702.15l0.72-47.88H809.79z"/>
	</g>
	<path id="Gear_Small" class="st0" d="M698.46,156.92l8.18-3.21l-0.95-6.36c1.03-0.82,1.98-1.72,2.82-2.71l6.32,1.18l3.51-8.06
		l-5.16-3.82c0.15-1.29,0.18-2.6,0.08-3.92l5.29-3.62l-3.21-8.18l-6.35,0.94c-0.82-1.04-1.73-1.98-2.72-2.82l1.18-6.31l-8.06-3.51
		l-3.83,5.17c-1.29-0.15-2.59-0.18-3.91-0.07l-3.63-5.31l-8.18,3.21l0.95,6.38c-1.03,0.81-1.96,1.72-2.8,2.7l-6.34-1.19l-3.51,8.06
		l5.19,3.85c-0.15,1.27-0.18,2.57-0.07,3.87l-5.33,3.65l3.21,8.18l6.39-0.95c0.81,1.02,1.71,1.95,2.69,2.79l-1.19,6.35l8.06,3.51
		l3.84-5.19c1.28,0.15,2.58,0.18,3.89,0.08L698.46,156.92z M682.95,135.38c-2.23-5.69,0.57-12.11,6.26-14.35
		c5.69-2.23,12.11,0.57,14.35,6.26c2.23,5.69-0.57,12.11-6.26,14.35C691.6,143.87,685.18,141.07,682.95,135.38z"/>
	<g id="Blue_Balls">
		<circle class="st0" cx="457.77" cy="15" r="10"/>
		<circle class="st0" cx="456.76" cy="75.1" r="10"/>
		<circle class="st0" cx="456.22" cy="135.19" r="10"/>
		<circle class="st0" cx="455.77" cy="195.29" r="10"/>
		<circle class="st0" cx="516.35" cy="104.81" r="10"/>
		<circle class="st0" cx="515.85" cy="45.05" r="10"/>
		<circle class="st0" cx="516.85" cy="165.24" r="10"/>
		<circle class="st0" cx="576.31" cy="74.82" r="10"/>
		<circle class="st0" cx="576.31" cy="134.82" r="10"/>
		<circle class="st0" cx="636.12" cy="104.86" r="10"/>
	</g>
</g>
<g>
</g>
<g>
</g>
<g>
</g>
<g>
</g>
<g>
</g>
<g>
</g>
<g>
</g>
<g>
</g>
<g>
</g>
<g>
</g>
<g>
</g>
<g>
</g>
<g>
</g>
<g>
</g>
<g>
</g>
</svg>
