<?xml version="1.0" encoding="UTF-8" standalone="no"?>
<!DOCTYPE svg PUBLIC "-//W3C//DTD SVG 1.1//EN" "http://www.w3.org/Graphics/SVG/1.1/DTD/svg11.dtd">
<svg width="100%" height="100%" viewBox="0 0 1000 800" version="1.1" xmlns="http://www.w3.org/2000/svg" xmlns:xlink="http://www.w3.org/1999/xlink" xml:space="preserve" xmlns:serif="http://www.serif.com/" style="fill-rule:evenodd;clip-rule:evenodd;stroke-linejoin:round;stroke-miterlimit:2;">
    <g transform="matrix(1,0,0,1,0,-100)">
        <g transform="matrix(1.59185,0,0,1.59185,-295.925,-296.132)">
            <path d="M216,384.8L241.7,384.8L241.7,301.9L271.8,301.9L271.8,279.2L185.9,279.2L185.9,301.9L216,301.9L216,384.8Z" style="fill:white;fill-rule:nonzero;"/>
        </g>
        <g transform="matrix(1.59185,0,0,1.59185,-295.925,-296.132)">
            <path d="M406.5,343.4L440.9,343.4L440.9,384.8L466.7,384.8L466.7,279.2L440.9,279.2L440.9,320.7L406.5,320.7L406.5,279.2L380.8,279.2L380.8,384.8L406.5,384.8L406.5,343.4Z" style="fill:white;fill-rule:nonzero;"/>
        </g>
        <g transform="matrix(1.59185,0,0,1.59185,-295.925,-296.132)">
            <path d="M505.3,343.4L539.6,343.4L539.6,384.8L565.4,384.8L565.4,279.2L539.6,279.2L539.6,320.7L505.3,320.7L505.3,279.2L479.5,279.2L479.5,384.8L505.3,384.8L505.3,343.4Z" style="fill:white;fill-rule:nonzero;"/>
        </g>
        <g transform="matrix(1.59185,0,0,1.59185,-295.925,-296.132)">
            <path d="M325,386.3C348.7,386.3 368,367.2 368,343.7L368,279.2L342.4,279.2L342.4,343.7C342.4,353.2 334.6,360.9 325,360.9C315.5,360.9 307.7,353.2 307.6,343.7L307.6,279.2L282,279.2L282,343.7C282.1,367.2 301.3,386.3 325,386.3Z" style="fill:white;fill-rule:nonzero;"/>
        </g>
        <g transform="matrix(1.59185,0,0,1.59185,-295.925,-296.132)">
            <path d="M548.2,640.9C531.2,640.9 518.8,652.9 518.8,669.7C518.8,686.4 531.2,698.6 548.2,698.6C565.2,698.6 577.5,686.4 577.5,669.7C577.5,653 565.2,640.9 548.2,640.9ZM548.2,690.9C536.3,690.9 527.6,682 527.6,669.6C527.6,657.3 536.2,648.5 548.2,648.5C560,648.5 568.7,657.4 568.7,669.6C568.6,682.1 560,690.9 548.2,690.9Z" style="fill:white;fill-rule:nonzero;"/>
        </g>
        <g transform="matrix(1.59185,0,0,1.59185,-295.925,-296.132)">
            <path d="M284,640.9C267,640.9 254.6,652.9 254.6,669.7C254.6,686.4 267,698.6 284,698.6C297.8,698.6 309.5,689.6 312.5,677.2L303.6,677.2C301.2,685.4 293.4,691.4 284.1,691.4C272.7,691.4 264.2,683.4 263.1,672.4L313.1,672.4C313.2,671.5 313.3,670.6 313.3,669.7C313.3,653 301,640.9 284,640.9ZM263.3,665.7C265,655.2 273.2,648.1 284.1,648.1C295,648.1 303.5,655.4 305,665.7L263.3,665.7Z" style="fill:white;fill-rule:nonzero;"/>
        </g>
        <g transform="matrix(1.59185,0,0,1.59185,-295.925,-296.132)">
            <path d="M351.8,648.5C361.7,648.5 369.9,655.2 371.7,664.6L380.5,664.6C378.7,650.8 366.6,640.8 351.9,640.8C334.9,640.8 322.5,652.8 322.5,669.6C322.5,686.3 334.9,698.5 351.9,698.5C366.7,698.5 378.7,688.5 380.5,674.6L371.7,674.6C369.9,684 361.8,690.9 351.8,690.9C339.9,690.9 331.2,682 331.2,669.6C331.2,657.4 339.9,648.5 351.8,648.5Z" style="fill:white;fill-rule:nonzero;"/>
        </g>
        <g transform="matrix(1.59185,0,0,1.59185,-295.925,-296.132)">
            <rect x="589.8" y="619.1" width="8.7" height="78.4" style="fill:white;"/>
        </g>
        <g transform="matrix(1.59185,0,0,1.59185,-295.925,-296.132)">
            <path d="M258.4,619.1L199.2,619.1L199.2,627.4L224.2,627.4L224.2,697.5L233.4,697.5L233.4,627.4L258.4,627.4L258.4,619.1Z" style="fill:white;fill-rule:nonzero;"/>
        </g>
        <g transform="matrix(1.59185,0,0,1.59185,-295.925,-296.132)">
            <path d="M728.5,652C723.6,645.2 715.7,641 706.1,641C690.2,641 678.6,652.7 678.6,669C678.6,685.3 690.2,697 706.1,697C715.6,697 723.6,692.8 728.5,685.9L728.5,694.6C728.5,706.1 720,714.4 708.2,714.4C699.8,714.4 691.8,709.4 689.4,702.7L681.1,702.6C683.8,713.5 695.3,721.5 708.5,721.5C725.2,721.5 737.1,710 737.1,694.2L737.1,642L728.5,642L728.5,652ZM708.1,690C696.2,690 687.5,681.1 687.5,668.9C687.5,656.5 696.1,647.6 708.1,647.6C719.9,647.6 728.6,656.5 728.6,668.9C728.5,681.2 719.9,690 708.1,690Z" style="fill:white;fill-rule:nonzero;"/>
        </g>
        <g transform="matrix(1.59185,0,0,1.59185,-295.925,-296.132)">
            <path d="M774.9,682.4L755.7,641.8L746.5,641.8L770.8,691.1L756.3,719.8L765.5,719.8L803.1,641.8L793.9,641.8L774.9,682.4Z" style="fill:white;fill-rule:nonzero;"/>
        </g>
        <g transform="matrix(1.59185,0,0,1.59185,-295.925,-296.132)">
            <path d="M484.8,640.9C476.3,640.9 469.6,644.9 466.1,651.7L466.1,641.8L457.3,641.8L457.3,697.5L466.1,697.5L466.1,665C466.1,654.5 472.5,647.8 482.3,647.8C492.1,647.8 498.3,654.5 498.3,665L498.3,697.5L506.9,697.5L506.9,664C507,650 498,640.9 484.8,640.9Z" style="fill:white;fill-rule:nonzero;"/>
        </g>
        <g transform="matrix(1.59185,0,0,1.59185,-295.925,-296.132)">
            <path d="M640.2,640.9C623.2,640.9 610.8,652.9 610.8,669.7C610.8,686.4 623.2,698.6 640.2,698.6C657.2,698.6 669.5,686.4 669.5,669.7C669.5,653 657.2,640.9 640.2,640.9ZM640.2,690.9C628.3,690.9 619.6,682 619.6,669.6C619.6,657.3 628.2,648.5 640.2,648.5C652,648.5 660.7,657.4 660.7,669.6C660.6,682.1 652,690.9 640.2,690.9Z" style="fill:white;fill-rule:nonzero;"/>
        </g>
        <g transform="matrix(1.59185,0,0,1.59185,-295.925,-296.132)">
            <path d="M420.1,640.9C411.6,640.9 404.9,644.9 401.4,651.7L401.4,619.1L392.6,619.1L392.6,697.5L401.4,697.5L401.4,665C401.4,654.5 407.8,647.8 417.6,647.8C427.4,647.8 433.6,654.5 433.6,665L433.6,697.5L442.2,697.5L442.2,664C442.2,650 433.3,640.9 420.1,640.9Z" style="fill:white;fill-rule:nonzero;"/>
        </g>
        <g transform="matrix(1.59185,0,0,1.59185,-295.925,-296.132)">
            <rect x="339.3" y="537.4" width="8.6" height="55.7" style="fill:white;"/>
        </g>
        <g transform="matrix(1.59185,0,0,1.59185,-295.925,-296.132)">
            <path d="M343.6,517.1C340.1,517.1 337.7,519.4 337.7,522.6C337.7,525.9 340.1,528.2 343.6,528.2C347,528.2 349.4,525.9 349.4,522.6C349.4,519.4 347,517.1 343.6,517.1Z" style="fill:white;fill-rule:nonzero;"/>
        </g>
        <g transform="matrix(1.59185,0,0,1.59185,-295.925,-296.132)">
            <path d="M810.1,521.1C811.1,521.1 812.7,521.3 814.1,521.9L814.1,514.1C812.7,513.9 811.1,513.8 810,513.8C800.8,513.8 794.3,519.7 794.3,528.2L794.3,537.4L786.1,537.4L786.1,544.8L794.3,544.8L794.3,593L803,593L803,544.7L814,544.7L814,537.3L803,537.3L803,528.1C803.1,523.9 805.9,521.1 810.1,521.1Z" style="fill:white;fill-rule:nonzero;"/>
        </g>
        <g transform="matrix(1.59185,0,0,1.59185,-295.925,-296.132)">
            <path d="M617.4,593L617.4,544.7L630.2,544.7L630.2,537.4L617.4,537.4L617.4,523.2L608.8,523.2L608.8,537.4L598.5,537.4L598.5,544.7L608.8,544.7L608.8,593L617.4,593Z" style="fill:white;fill-rule:nonzero;"/>
        </g>
        <g transform="matrix(1.59185,0,0,1.59185,-295.925,-296.132)">
            <path d="M545.6,542.9C553,542.9 558,546.8 558.2,552.6L566.3,552.6C566.3,543.1 557.9,536.5 545.7,536.5C533.4,536.5 525,542.8 525,552.3C525,564.9 536.9,567.2 545.5,568.7C552.7,570.1 559.1,571.1 559.1,578.2C559.1,583.8 553.8,587.5 546.1,587.5C538,587.5 532.5,583.4 532.2,577.3L523.7,577.3C523.9,587.2 532.9,594.1 545.9,594.1C558.7,594.1 567.6,587.4 567.6,577.7C567.6,564.9 554.9,562.7 546.7,561.1C539.5,559.6 533.6,558.5 533.6,551.4C533.7,546.3 538.6,542.9 545.6,542.9Z" style="fill:white;fill-rule:nonzero;"/>
        </g>
        <g transform="matrix(1.59185,0,0,1.59185,-295.925,-296.132)">
            <path d="M584.6,528.1C588,528.1 590.4,525.8 590.4,522.5C590.4,519.3 588,517 584.6,517C581.1,517 578.7,519.3 578.7,522.5C578.7,525.9 581.1,528.1 584.6,528.1Z" style="fill:white;fill-rule:nonzero;"/>
        </g>
        <g transform="matrix(1.59185,0,0,1.59185,-295.925,-296.132)">
            <path d="M495.4,550.9L495.4,537.4L486.7,537.4L486.7,593L495.4,593L495.4,564.8C495.4,552 503.4,544.6 517,544.6L517,536.1C506.5,536.1 498.9,541.4 495.4,550.9Z" style="fill:white;fill-rule:nonzero;"/>
        </g>
        <g transform="matrix(1.59185,0,0,1.59185,-295.925,-296.132)">
            <rect x="580.3" y="537.4" width="8.6" height="55.7" style="fill:white;"/>
        </g>
        <g transform="matrix(1.59185,0,0,1.59185,-295.925,-296.132)">
            <path d="M473.7,572.7L464.8,572.7C462.4,580.9 454.6,586.9 445.3,586.9C433.9,586.9 425.4,578.9 424.3,567.9L474.3,567.9C474.4,567 474.5,566.1 474.5,565.2C474.5,548.5 462.2,536.4 445.2,536.4C428.2,536.4 415.8,548.4 415.8,565.2C415.8,581.9 428.2,594.1 445.2,594.1C458.9,594.1 470.6,585.1 473.7,572.7ZM445.3,543.6C456.2,543.6 464.7,550.9 466.2,561.2L424.5,561.2C426.2,550.8 434.4,543.6 445.3,543.6Z" style="fill:white;fill-rule:nonzero;"/>
        </g>
        <g transform="matrix(1.59185,0,0,1.59185,-295.925,-296.132)">
            <path d="M751.1,594.1C768.1,594.1 780.4,581.9 780.4,565.2C780.4,548.5 768.1,536.4 751.1,536.4C734.1,536.4 721.7,548.4 721.7,565.2C721.7,581.9 734.1,594.1 751.1,594.1ZM751.1,544.1C762.9,544.1 771.6,553 771.6,565.2C771.6,577.6 763,586.5 751.1,586.5C739.2,586.5 730.5,577.6 730.5,565.2C730.5,552.9 739.2,544.1 751.1,544.1Z" style="fill:white;fill-rule:nonzero;"/>
        </g>
        <g transform="matrix(1.59185,0,0,1.59185,-295.925,-296.132)">
            <path d="M229,594.1C247,594.1 259,582.2 259,564.1L259,514.7L249.8,514.7L249.8,563.7C249.8,577 241.6,585.6 228.9,585.6C216.3,585.6 208.1,577 208.1,563.7L208.1,514.7L198.8,514.7L198.8,564.1C198.7,582.1 210.9,594.1 229,594.1Z" style="fill:white;fill-rule:nonzero;"/>
        </g>
        <g transform="matrix(1.59185,0,0,1.59185,-295.925,-296.132)">
            <path d="M646.1,537.4L636.9,537.4L661.2,586.6L646.7,615.3L655.9,615.3L693.5,537.4L684.3,537.4L665.3,577.9L646.1,537.4Z" style="fill:white;fill-rule:nonzero;"/>
        </g>
        <g transform="matrix(1.59185,0,0,1.59185,-295.925,-296.132)">
            <path d="M324.4,593L324.4,559.5C324.4,545.5 315.4,536.4 302.2,536.4C293.7,536.4 287,540.4 283.4,547.2L283.4,537.3L274.7,537.3L274.7,593L283.4,593L283.4,560.5C283.4,550 289.8,543.3 299.7,543.3C309.5,543.3 315.7,550 315.7,560.5L315.7,593L324.4,593Z" style="fill:white;fill-rule:nonzero;"/>
        </g>
        <g transform="matrix(1.59185,0,0,1.59185,-295.925,-296.132)">
            <path d="M403.1,537.4L384.7,584.4L366.2,537.4L357,537.4L379.5,593L389.8,593L412.3,537.4L403.1,537.4Z" style="fill:white;fill-rule:nonzero;"/>
        </g>
        <g transform="matrix(1.59185,0,0,1.59185,-295.925,-296.132)">
            <path d="M638,488.3C647.5,488.3 655.5,484.1 660.4,477.2L660.4,485.9C660.4,497.4 651.9,505.7 640.1,505.7C631.7,505.7 623.7,500.7 621.3,494L613,493.9C615.7,504.8 627.2,512.8 640.4,512.8C657.1,512.8 669,501.3 669,485.5L669,433.3L660.4,433.3L660.4,443.4C655.5,436.6 647.6,432.4 638,432.4C622.1,432.4 610.5,444.1 610.5,460.4C610.5,476.6 622.1,488.3 638,488.3ZM640,439.1C651.8,439.1 660.5,448 660.5,460.4C660.5,472.7 651.9,481.5 640,481.5C628.1,481.5 619.4,472.6 619.4,460.4C619.4,448 628,439.1 640,439.1Z" style="fill:white;fill-rule:nonzero;"/>
        </g>
        <g transform="matrix(1.59185,0,0,1.59185,-295.925,-296.132)">
            <path d="M354.8,441.6L354.8,433.3L346,433.3L346,489L354.8,489L354.8,453.8C354.8,444.9 360,439.5 368.3,439.5C376.8,439.5 381.8,445 381.8,453.8L381.8,489L390.4,489L390.4,453.8C390.4,444.9 395.6,439.5 404,439.5C412.4,439.5 417.4,445 417.4,453.8L417.4,489L426,489L426,452.7C426,440.2 418.4,432.4 406.8,432.4C398.2,432.4 391.6,436.6 388.6,443.7C385.9,436.7 379.7,432.4 371.4,432.4C364,432.4 358,435.7 354.8,441.6Z" style="fill:white;fill-rule:nonzero;"/>
        </g>
        <g transform="matrix(1.59185,0,0,1.59185,-295.925,-296.132)">
            <path d="M258,489L258,410.6L248.7,410.6L248.7,446.1L208.8,446.1L208.8,410.6L199.6,410.6L199.6,489L208.8,489L208.8,454.4L248.7,454.4L248.7,489L258,489Z" style="fill:white;fill-rule:nonzero;"/>
        </g>
        <g transform="matrix(1.59185,0,0,1.59185,-295.925,-296.132)">
            <path d="M560.7,466.1L560.7,433.4L551.9,433.4L551.9,466.1C551.9,476.2 545.7,482.8 536,482.8C526.3,482.8 520.1,476.2 520.1,466.1L520.1,433.4L511.4,433.4L511.4,466.1C511.4,480.5 521.3,490.1 536.1,490.1C550.8,490 560.7,480.5 560.7,466.1Z" style="fill:white;fill-rule:nonzero;"/>
        </g>
        <g transform="matrix(1.59185,0,0,1.59185,-295.925,-296.132)">
            <path d="M299.6,490C309,490 317,485.8 321.9,478.9L321.9,489L330.5,489L330.5,433.3L321.9,433.3L321.9,443.5C317,436.6 309.1,432.4 299.6,432.4C283.6,432.4 272,444.4 272,461.2C272,477.9 283.6,490 299.6,490ZM301.5,440C313.3,440 322,448.9 322,461.1C322,473.5 313.4,482.4 301.5,482.4C289.6,482.4 280.9,473.5 280.9,461.1C280.9,448.9 289.5,440 301.5,440Z" style="fill:white;fill-rule:nonzero;"/>
        </g>
        <g transform="matrix(1.59185,0,0,1.59185,-295.925,-296.132)">
            <path d="M450.2,443.6L450.2,410.6L441.5,410.6L441.5,489L450.2,489L450.2,478.9C455.1,485.7 462.9,490 472.5,490C488.4,490 500.1,477.8 500.1,461.1C500.1,444.4 488.4,432.3 472.5,432.3C462.9,432.4 455.1,436.6 450.2,443.6ZM470.7,440C482.6,440 491.2,448.9 491.2,461.1C491.2,473.5 482.7,482.4 470.7,482.4C458.8,482.4 450.2,473.5 450.2,461.1C450.2,448.9 458.7,440 470.7,440Z" style="fill:white;fill-rule:nonzero;"/>
        </g>
        <g transform="matrix(1.59185,0,0,1.59185,-295.925,-296.132)">
            <path d="M584.5,460.8C584.5,448 592.5,440.6 606.1,440.6L606.1,432.1C595.6,432.1 588,437.4 584.5,446.9L584.5,433.4L575.8,433.4L575.8,489L584.5,489L584.5,460.8Z" style="fill:white;fill-rule:nonzero;"/>
        </g>
    </g>
</svg>
