<?xml version="1.0" encoding="UTF-8" standalone="no"?>
<!DOCTYPE svg PUBLIC "-//W3C//DTD SVG 1.1//EN" "http://www.w3.org/Graphics/SVG/1.1/DTD/svg11.dtd">
<svg width="100%" height="100%" viewBox="0 0 64 64" version="1.1" xmlns="http://www.w3.org/2000/svg" xmlns:xlink="http://www.w3.org/1999/xlink" xml:space="preserve" xmlns:serif="http://www.serif.com/" style="fill-rule:evenodd;clip-rule:evenodd;stroke-linejoin:round;stroke-miterlimit:2;">
    <path d="M64,32C64,14.339 49.661,0 32,0C14.339,0 0,14.339 0,32C0,49.661 14.339,64 32,64C49.661,64 64,49.661 64,32Z" style="fill:rgb(31,226,160);"/>
    <g transform="matrix(2.36038,0,0,2.36038,12.8184,10.7566)">
        <g>
            <path d="M2,2C0.903,2 -0,2.903 0,4L0,12.01C0.005,13.103 0.907,14 2,14L7.5,14C7.774,14 8,13.774 8,13.5C8,13.226 7.774,13 7.5,13L2,13C1.549,13 1.151,12.695 1.034,12.259L6.674,8.788L8,9.583L15,5.383L15,8.5C15,8.774 15.226,9 15.5,9C15.774,9 16,8.774 16,8.5L16,4C16,2.903 15.097,2 14,2L2,2ZM5.708,8.208L1,11.105L1,5.383L5.708,8.208ZM1,4.217L1,4C1,3.451 1.451,3 2,3L14,3C14.549,3 15,3.451 15,4L15,4.217L8,8.417L1,4.217Z" style="fill:white;fill-rule:nonzero;"/>
            <path d="M14.247,14.269C15.257,14.269 15.834,13.412 15.834,12.244L15.834,12.034C15.834,10.43 14.64,9 12.52,9L12.485,9C10.42,9 9,10.36 9,12.432L9,12.646C9,14.82 10.438,16 12.358,16L12.402,16C12.996,16 13.42,15.926 13.639,15.825L13.639,15.095C13.394,15.205 12.966,15.275 12.459,15.275L12.415,15.275C11.081,15.275 9.844,14.487 9.844,12.62L9.844,12.463C9.844,10.806 10.902,9.739 12.484,9.739L12.524,9.739C14.059,9.739 15.008,10.789 15.008,12.065L15.008,12.183C15.008,13.158 14.684,13.573 14.369,13.573C14.137,13.573 13.959,13.425 13.959,13.153L13.959,10.963L13.053,10.963L13.053,11.532L13.023,11.532C12.939,11.234 12.655,10.902 12.069,10.902C11.291,10.902 10.81,11.457 10.81,12.302L10.81,12.83C10.81,13.722 11.3,14.264 12.07,14.264C12.541,14.264 12.966,14.037 13.084,13.621L13.127,13.621C13.245,14.041 13.744,14.269 14.247,14.269ZM11.794,12.682L11.794,12.454C11.794,11.908 12.021,11.663 12.367,11.663C12.664,11.663 12.939,11.855 12.939,12.371L12.939,12.738C12.939,13.311 12.686,13.482 12.375,13.482C12.021,13.482 11.794,13.267 11.794,12.682Z" style="fill:white;fill-rule:nonzero;"/>
        </g>
    </g>
</svg>
