<?xml version="1.0" encoding="UTF-8" standalone="no"?>
<!DOCTYPE svg PUBLIC "-//W3C//DTD SVG 1.1//EN" "http://www.w3.org/Graphics/SVG/1.1/DTD/svg11.dtd">
<svg width="100%" height="100%" viewBox="0 0 64 64" version="1.1" xmlns="http://www.w3.org/2000/svg" xmlns:xlink="http://www.w3.org/1999/xlink" xml:space="preserve" xmlns:serif="http://www.serif.com/" style="fill-rule:evenodd;clip-rule:evenodd;stroke-linejoin:round;stroke-miterlimit:2;">
    <path d="M64,32C64,14.339 49.661,0 32,0C14.339,0 0,14.339 0,32C0,49.661 14.339,64 32,64C49.661,64 64,49.661 64,32Z" style="fill:rgb(31,226,160);"/>
    <g transform="matrix(2.12501,0,0,2.12501,15,13.6303)">
        <g>
            <g>
                <clipPath id="_clip1">
                    <rect x="0" y="0" width="16" height="16"/>
                </clipPath>
                <g clip-path="url(#_clip1)">
                    <path d="M6.825,4.138C7.421,6.279 6.465,7.731 4.436,8.255C3.776,8.428 3.086,8.446 2.418,8.309C2.37,8.299 3.318,11.087 3.94,12.919L4.35,14.124C4.367,14.176 4.375,14.23 4.375,14.285C4.375,14.514 4.224,14.717 4.004,14.783L3.411,14.973C3.129,15.067 2.819,14.914 2.721,14.633L0.184,6.99C-0.512,4.853 0.846,2.681 2.748,2.19C4.777,1.667 6.15,2.19 6.824,4.138L6.825,4.138ZM5.957,6.359C6.387,6.247 6.518,5.366 6.249,4.39C5.98,3.415 5.413,2.715 4.983,2.827C4.553,2.939 4.422,3.821 4.691,4.796C4.96,5.771 5.527,6.471 5.957,6.359ZM9.175,4.138C8.579,6.279 9.535,7.731 11.564,8.255C12.224,8.428 12.914,8.446 13.582,8.309C13.63,8.299 12.682,11.087 12.06,12.919L11.65,14.124C11.633,14.176 11.625,14.23 11.625,14.285C11.625,14.514 11.776,14.717 11.996,14.783L12.589,14.973C12.878,15.065 13.189,14.913 13.279,14.633L15.815,6.99C16.511,4.853 15.153,2.681 13.251,2.19C11.222,1.667 9.849,2.19 9.175,4.138ZM10.043,6.359C9.613,6.247 9.482,5.366 9.751,4.39C10.02,3.415 10.587,2.715 11.017,2.827C11.447,2.939 11.578,3.821 11.309,4.796C11.04,5.771 10.473,6.471 10.043,6.359Z" style="fill:white;"/>
                </g>
            </g>
        </g>
    </g>
</svg>
