<?xml version="1.0" encoding="UTF-8" standalone="no"?>
<!DOCTYPE svg PUBLIC "-//W3C//DTD SVG 1.1//EN" "http://www.w3.org/Graphics/SVG/1.1/DTD/svg11.dtd">
<svg width="100%" height="100%" viewBox="0 0 64 64" version="1.1" xmlns="http://www.w3.org/2000/svg" xmlns:xlink="http://www.w3.org/1999/xlink" xml:space="preserve" xmlns:serif="http://www.serif.com/" style="fill-rule:evenodd;clip-rule:evenodd;stroke-linejoin:round;stroke-miterlimit:2;">
    <path d="M64,32C64,14.339 49.661,0 32,0C14.339,0 0,14.339 0,32C0,49.661 14.339,64 32,64C49.661,64 64,49.661 64,32Z" style="fill:rgb(31,226,160);"/>
    <g transform="matrix(0.0602138,0,0,0.0602138,32,32)">
        <g transform="matrix(1,0,0,1,-400,-400)">
            <path d="M747.65,322.9C767.625,314.175 767.625,285.825 747.65,277.1L430.05,138.15C420.475,133.95 410.25,131.875 400,131.875C389.75,131.875 379.525,133.975 369.95,138.175L52.35,277.1C32.375,285.85 32.375,314.175 52.35,322.9L200,387.5L200,470.5C200,498.9 216.05,524.875 241.45,537.575C291.375,562.525 345.675,575 400,575C454.325,575 508.625,562.525 558.525,537.575C583.95,524.875 600,498.9 600,470.5L600,387.5L700,343.75L700,525C686.2,525 675,536.2 675,550L675,625C675,638.8 686.2,650 700,650L725,650C738.8,650 750,638.8 750,625L750,550C750,536.2 738.8,525 725,525L725,332.8L747.65,322.9ZM575,470.5C575,489.55 564.4,506.7 547.35,515.225C501.85,537.975 450.875,550 400,550C349.125,550 298.15,537.975 252.65,515.225C235.6,506.7 225,489.55 225,470.5L225,398.45L369.95,461.85C379.525,466.05 389.775,468.15 400,468.15C410.25,468.15 420.475,466.05 430.05,461.85L575,398.425L575,470.5ZM420.05,438.95C413.7,441.725 406.95,443.15 400,443.15C393.05,443.15 386.325,441.75 379.95,438.95L62.375,300L379.95,161.05C386.325,158.275 393.05,156.875 400,156.875C406.95,156.875 413.675,158.275 420.05,161.075L737.625,300L709.675,312.225L422.35,289.25C418.3,280.875 409.9,275 400,275C386.2,275 375,286.2 375,300C375,313.8 386.2,325 400,325C408.425,325 415.525,320.55 420.05,314.15L661.2,333.45L420.05,438.95Z" style="fill:white;fill-rule:nonzero;"/>
        </g>
    </g>
</svg>
