<?xml version="1.0" encoding="UTF-8" standalone="no"?>
<!DOCTYPE svg PUBLIC "-//W3C//DTD SVG 1.1//EN" "http://www.w3.org/Graphics/SVG/1.1/DTD/svg11.dtd">
<svg width="100%" height="100%" viewBox="0 0 64 64" version="1.1" xmlns="http://www.w3.org/2000/svg" xmlns:xlink="http://www.w3.org/1999/xlink" xml:space="preserve" xmlns:serif="http://www.serif.com/" style="fill-rule:evenodd;clip-rule:evenodd;stroke-linejoin:round;stroke-miterlimit:2;">
    <path d="M64,32C64,14.339 49.661,0 32,0C14.339,0 0,14.339 0,32C0,49.661 14.339,64 32,64C49.661,64 64,49.661 64,32Z" style="fill:rgb(31,226,160);"/>
    <g transform="matrix(0.055116,0,0,0.055116,32,32)">
        <g transform="matrix(1,0,0,1,-400,-400)">
            <clipPath id="_clip1">
                <rect x="0" y="0" width="800" height="800"/>
            </clipPath>
            <g clip-path="url(#_clip1)">
                <g>
                    <path d="M763.209,325.636L729.093,325.636C720.636,287.962 705.937,252.459 685.303,219.864L709.411,195.754C723.756,181.409 723.756,158.07 709.411,143.724L656.274,90.588C649.326,83.638 640.086,79.812 630.259,79.812C620.432,79.812 611.192,83.64 604.244,90.588L580.136,114.696C547.541,94.062 512.038,79.363 474.364,70.906L474.364,36.791C474.364,16.504 457.86,-0 437.573,-0L362.427,-0C342.14,-0 325.636,16.504 325.636,36.791L325.636,70.907C287.962,79.364 252.459,94.063 219.864,114.697L195.756,90.589C188.808,83.64 179.568,79.812 169.741,79.812C159.914,79.812 150.674,83.64 143.726,90.588L90.589,143.726C76.244,158.071 76.244,181.411 90.589,195.756L114.699,219.865C94.065,252.46 79.366,287.964 70.909,325.636L36.791,325.636C16.504,325.636 -0,342.14 -0,362.427L-0,437.573C-0,457.86 16.504,474.364 36.791,474.364L70.909,474.364C79.366,512.038 94.065,547.54 114.699,580.135L90.589,604.244C83.641,611.192 79.814,620.432 79.814,630.259C79.814,640.086 83.641,649.324 90.589,656.274L143.726,709.411C150.674,716.359 159.914,720.186 169.741,720.186C179.568,720.186 188.808,716.359 195.756,709.411L219.865,685.301C252.46,705.935 287.962,720.632 325.638,729.091L325.638,763.209C325.638,783.496 342.142,800 362.428,800L437.575,800C457.861,800 474.366,783.496 474.366,763.209L474.366,729.093C512.039,720.636 547.541,705.937 580.138,685.303L604.246,709.412C611.194,716.36 620.434,720.188 630.261,720.188C640.088,720.188 649.328,716.36 656.276,709.412L709.412,656.276C716.36,649.328 720.188,640.088 720.188,630.261C720.188,620.434 716.36,611.194 709.412,604.246L685.304,580.138C705.938,547.543 720.636,512.041 729.094,474.366L763.209,474.366C783.496,474.366 800,457.861 800,437.575L800,362.428C800,342.14 783.496,325.636 763.209,325.636ZM776.517,437.573C776.517,444.911 770.547,450.881 763.209,450.881L719.557,450.881C713.938,450.881 709.107,454.862 708.033,460.376C699.986,501.672 684,540.283 660.521,575.136C657.382,579.795 657.984,586.026 661.957,589.998L692.806,620.847C695.319,623.361 696.705,626.702 696.705,630.258C696.705,633.811 695.321,637.154 692.806,639.667L639.67,692.803C637.157,695.316 633.814,696.701 630.259,696.701C626.704,696.701 623.363,695.317 620.85,692.803L589.999,661.952C586.027,657.979 579.795,657.376 575.137,660.517C540.282,683.997 501.67,699.981 460.376,708.028C454.86,709.102 450.881,713.933 450.881,719.552L450.881,763.209C450.881,770.547 444.911,776.517 437.573,776.517L362.427,776.517C355.089,776.517 349.119,770.547 349.119,763.209L349.119,719.557C349.119,713.938 345.14,709.107 339.624,708.033C298.33,699.986 259.717,684 224.864,660.521C222.867,659.177 220.581,658.517 218.308,658.517C215.278,658.517 212.271,659.687 210.001,661.957L179.15,692.808C176.637,695.321 173.296,696.706 169.741,696.706C166.186,696.706 162.845,695.322 160.33,692.808L107.194,639.67C104.681,637.157 103.295,633.814 103.295,630.261C103.295,626.705 104.679,623.364 107.194,620.85L138.045,589.999C142.018,586.026 142.619,579.796 139.48,575.137C116,540.283 100.016,501.672 91.969,460.377C90.893,454.862 86.063,450.882 80.445,450.882L36.791,450.882C29.453,450.882 23.483,444.913 23.483,437.575L23.483,362.428C23.483,355.09 29.453,349.121 36.791,349.121L80.443,349.121C86.062,349.121 90.893,345.14 91.967,339.626C100.014,298.331 116,259.72 139.479,224.866C142.618,220.207 142.016,213.976 138.043,210.004L107.194,179.15C102.005,173.962 102.005,165.519 107.194,160.33L160.33,107.194C162.843,104.681 166.186,103.295 169.741,103.295C173.296,103.295 176.637,104.679 179.15,107.194L209.999,138.043C213.973,142.015 220.2,142.618 224.863,139.479C259.717,116 298.328,100.014 339.624,91.967C345.138,90.892 349.119,86.062 349.119,80.441L349.119,36.791C349.119,29.453 355.089,23.483 362.427,23.483L437.573,23.483C444.911,23.483 450.881,29.453 450.881,36.791L450.881,80.443C450.881,86.062 454.862,90.893 460.376,91.969C501.67,100.016 540.282,116 575.137,139.48C579.798,142.619 586.029,142.018 590.001,138.045L620.852,107.195C623.364,104.683 626.705,103.297 630.261,103.297C633.816,103.297 637.157,104.681 639.671,107.195L692.808,160.332C697.996,165.52 697.996,173.963 692.808,179.151L661.959,210.001C657.985,213.973 657.384,220.204 660.523,224.863C684.003,259.718 699.987,298.33 708.034,339.624C709.108,345.14 713.94,349.119 719.559,349.119L763.209,349.119C770.547,349.119 776.517,355.089 776.517,362.427L776.517,437.573Z" style="fill:white;fill-rule:nonzero;"/>
                    <path d="M186.301,400C186.301,282.167 282.167,186.301 400,186.301C428.842,186.301 456.817,191.945 483.144,203.076C489.116,205.602 496.006,202.807 498.532,196.834C501.057,190.862 498.262,183.972 492.288,181.447C463.051,169.086 432.002,162.818 400,162.818C269.216,162.818 162.818,269.218 162.818,400C162.818,454.168 181.556,507.141 215.58,549.159C217.901,552.025 221.292,553.512 224.712,553.512C227.308,553.512 229.921,552.656 232.094,550.895C237.133,546.813 237.912,539.421 233.83,534.381C203.181,496.531 186.301,448.806 186.301,400Z" style="fill:white;fill-rule:nonzero;"/>
                    <path d="M603.206,301.548C597.232,304.07 594.434,310.959 596.957,316.933C608.066,343.241 613.699,371.189 613.699,400C613.699,517.833 517.835,613.699 400,613.699C351.214,613.699 303.505,596.831 265.663,566.204C260.623,562.124 253.231,562.903 249.149,567.945C245.071,572.986 245.849,580.379 250.89,584.459C292.899,618.458 345.854,637.182 400,637.182C530.784,637.182 637.182,530.782 637.182,400C637.182,368.033 630.926,337.011 618.591,307.798C616.067,301.824 609.177,299.026 603.206,301.548Z" style="fill:white;fill-rule:nonzero;"/>
                    <path d="M534.312,233.775C546.021,243.25 556.764,253.993 566.24,265.706C568.56,268.575 571.953,270.063 575.375,270.063C577.969,270.063 580.579,269.209 582.752,267.45C587.795,263.372 588.575,255.978 584.496,250.937C573.987,237.944 562.071,226.029 549.082,215.519C544.042,211.441 536.648,212.221 532.568,217.262C528.49,222.303 529.271,229.697 534.312,233.775Z" style="fill:white;fill-rule:nonzero;"/>
                    <path d="M400,212.916C296.841,212.916 212.916,296.842 212.916,400C212.916,503.158 296.841,587.084 400,587.084C503.159,587.084 587.084,503.159 587.084,400C587.084,296.841 503.159,212.916 400,212.916ZM400,563.601C309.789,563.601 236.399,490.211 236.399,400C236.399,309.789 309.789,236.399 400,236.399C490.211,236.399 563.601,309.791 563.601,400C563.601,490.209 490.211,563.601 400,563.601Z" style="fill:white;fill-rule:nonzero;"/>
                </g>
            </g>
        </g>
    </g>
</svg>
